<?xml version="1.0" encoding="UTF-8"?>
<svg xmlns="http://www.w3.org/2000/svg" xmlns:xlink="http://www.w3.org/1999/xlink" viewBox="0 0 5442.52 3724.72">
  <defs>
    <linearGradient id="linear-gradient" x1="1052.73" y1="445.11" x2="1052.73" y2="1713.84" gradientUnits="userSpaceOnUse">
      <stop offset="0" stop-color="#199fb5"></stop>
      <stop offset=".05" stop-color="#2da7ba"></stop>
      <stop offset=".17" stop-color="#5cbbc9"></stop>
      <stop offset=".3" stop-color="#86ccd5"></stop>
      <stop offset=".43" stop-color="#a7dadf"></stop>
      <stop offset=".57" stop-color="#c1e5e7"></stop>
      <stop offset=".7" stop-color="#d4ecec"></stop>
      <stop offset=".84" stop-color="#dff1ef"></stop>
      <stop offset="1" stop-color="#e3f3f1"></stop>
    </linearGradient>
    <linearGradient id="linear-gradient-2" x1="2674.26" x2="2674.26" xlink:href="#linear-gradient"></linearGradient>
    <linearGradient id="linear-gradient-3" x1="4295.79" x2="4295.79" xlink:href="#linear-gradient"></linearGradient>
    <linearGradient id="linear-gradient-4" x1="1863.49" y1="1986.9" x2="1863.49" y2="3255.63" xlink:href="#linear-gradient"></linearGradient>
    <linearGradient id="linear-gradient-5" x1="3485.03" y1="1986.9" x2="3485.03" y2="3255.63" xlink:href="#linear-gradient"></linearGradient>
    <linearGradient id="linear-gradient-6" x1="698.67" y1="958.14" x2="1406.78" y2="958.14" gradientUnits="userSpaceOnUse">
      <stop offset=".25" stop-color="#199fb5"></stop>
      <stop offset=".4" stop-color="#199ab3"></stop>
      <stop offset=".55" stop-color="#1b8eaf"></stop>
      <stop offset=".7" stop-color="#1f7aa7"></stop>
      <stop offset=".85" stop-color="#245d9d"></stop>
      <stop offset="1" stop-color="#2b3990"></stop>
    </linearGradient>
  </defs>
  <g id="Layer_2">
    <circle cx="1052.73" cy="1078.66" r="662.99" style="fill:url(#linear-gradient); stroke:#2b3990; stroke-miterlimit:10; stroke-width:11px;"></circle>
    <circle cx="1052.73" cy="1078.66" r="538.99" style="fill:#fff; stroke:#2b3990; stroke-miterlimit:10; stroke-width:9px;"></circle>
    <circle cx="2674.26" cy="1078.66" r="662.99" style="fill:url(#linear-gradient-2); stroke:#2b3990; stroke-miterlimit:10; stroke-width:11px;"></circle>
    <circle cx="2674.26" cy="1078.66" r="538.99" style="fill:#fff; stroke:#2b3990; stroke-miterlimit:10; stroke-width:9px;"></circle>
    <circle cx="4295.79" cy="1078.66" r="662.99" style="fill:url(#linear-gradient-3); stroke:#2b3990; stroke-miterlimit:10; stroke-width:11px;"></circle>
    <circle cx="4295.79" cy="1078.66" r="538.99" style="fill:#fff; stroke:#2b3990; stroke-miterlimit:10; stroke-width:9px;"></circle>
    <circle cx="1863.49" cy="2620.45" r="662.99" style="fill:url(#linear-gradient-4); stroke:#2b3990; stroke-miterlimit:10; stroke-width:11px;"></circle>
    <circle cx="1863.49" cy="2620.45" r="538.99" style="fill:#fff; stroke:#2b3990; stroke-miterlimit:10; stroke-width:9px;"></circle>
    <circle cx="3485.03" cy="2620.45" r="662.99" style="fill:url(#linear-gradient-5); stroke:#2b3990; stroke-miterlimit:10; stroke-width:11px;"></circle>
    <circle cx="3485.03" cy="2620.45" r="538.99" style="fill:#fff; stroke:#2b3990; stroke-miterlimit:10; stroke-width:9px;"></circle>
  </g>
  <g id="Layer_3">
    <polygon points="1138.84 857.42 1138.84 805.41 1235.12 805.41 1219.89 768.87 1235.12 732.32 1138.84 732.32 1134.25 732.32 1129.13 732.32 1129.13 859.87 997.42 1020.39 915.15 920.13 698.67 1183.95 863.21 1183.95 1131.63 1183.95 1406.78 1183.95 1138.84 857.42" style="fill:url(#linear-gradient-6); stroke-width:0px;"></polygon>
    <path d="M761.92,1252.59h36.9l16.45,117.73h.47l16.45-117.73h36.9v164.5h-24.44v-124.55h-.47l-18.8,124.55h-21.62l-18.8-124.55h-.47v124.55h-22.56v-164.5Z" style="fill:#199fb5; stroke-width:0px;"></path>
    <path d="M888.35,1252.59h25.85v164.5h-25.85v-164.5Z" style="fill:#199fb5; stroke-width:0px;"></path>
    <path d="M938.64,1408.75c-6.43-7.13-9.64-17.35-9.64-30.67v-9.4h24.44v11.28c0,10.66,4.47,15.98,13.4,15.98,4.38,0,7.71-1.29,9.99-3.88,2.27-2.58,3.41-6.77,3.41-12.57,0-6.89-1.57-12.96-4.7-18.21-3.14-5.25-8.93-11.55-17.39-18.92-10.66-9.4-18.1-17.9-22.33-25.5-4.23-7.6-6.34-16.17-6.34-25.73,0-13,3.29-23.07,9.87-30.2,6.58-7.13,16.13-10.69,28.67-10.69s21.74,3.57,28.08,10.69c6.34,7.13,9.52,17.35,9.52,30.67v6.82h-24.44v-8.46c0-5.64-1.1-9.75-3.29-12.34-2.2-2.58-5.4-3.88-9.63-3.88-8.62,0-12.92,5.25-12.92,15.75,0,5.96,1.6,11.52,4.82,16.69,3.21,5.17,9.05,11.44,17.51,18.8,10.81,9.4,18.25,17.94,22.33,25.62,4.07,7.68,6.11,16.69,6.11,27.02,0,13.48-3.33,23.82-9.99,31.02-6.66,7.21-16.33,10.81-29.02,10.81s-22.01-3.56-28.44-10.69Z" style="fill:#199fb5; stroke-width:0px;"></path>
    <path d="M1026.05,1408.75c-6.43-7.13-9.64-17.35-9.64-30.67v-9.4h24.44v11.28c0,10.66,4.47,15.98,13.4,15.98,4.38,0,7.71-1.29,9.99-3.88,2.27-2.58,3.41-6.77,3.41-12.57,0-6.89-1.57-12.96-4.7-18.21-3.14-5.25-8.93-11.55-17.39-18.92-10.66-9.4-18.1-17.9-22.33-25.5-4.23-7.6-6.34-16.17-6.34-25.73,0-13,3.29-23.07,9.87-30.2,6.58-7.13,16.13-10.69,28.67-10.69s21.74,3.57,28.08,10.69c6.34,7.13,9.52,17.35,9.52,30.67v6.82h-24.44v-8.46c0-5.64-1.1-9.75-3.29-12.34-2.2-2.58-5.4-3.88-9.63-3.88-8.62,0-12.92,5.25-12.92,15.75,0,5.96,1.6,11.52,4.82,16.69,3.21,5.17,9.05,11.44,17.51,18.8,10.81,9.4,18.25,17.94,22.33,25.62,4.07,7.68,6.11,16.69,6.11,27.02,0,13.48-3.33,23.82-9.99,31.02-6.66,7.21-16.33,10.81-29.02,10.81s-22.01-3.56-28.44-10.69Z" style="fill:#199fb5; stroke-width:0px;"></path>
    <path d="M1108.3,1252.59h25.85v164.5h-25.85v-164.5Z" style="fill:#199fb5; stroke-width:0px;"></path>
    <path d="M1161.64,1408.63c-6.74-7.2-10.1-17.39-10.1-30.55v-86.48c0-13.16,3.37-23.34,10.1-30.55,6.73-7.2,16.45-10.81,29.14-10.81s22.4,3.61,29.14,10.81c6.73,7.21,10.1,17.39,10.1,30.55v86.48c0,13.16-3.37,23.35-10.1,30.55-6.74,7.21-16.45,10.81-29.14,10.81s-22.41-3.6-29.14-10.81ZM1204.18,1379.73v-89.77c0-10.81-4.46-16.22-13.4-16.22s-13.4,5.41-13.4,16.22v89.77c0,10.81,4.46,16.22,13.4,16.22s13.4-5.41,13.4-16.22Z" style="fill:#199fb5; stroke-width:0px;"></path>
    <path d="M1247.42,1252.59h32.43l25.15,98.46h.47v-98.46h23.03v164.5h-26.56l-31.02-120.08h-.47v120.08h-23.03v-164.5Z" style="fill:#199fb5; stroke-width:0px;"></path>
    <path d="M2438.86,1252.59h26.08l16.92,127.6h.47l16.92-127.6h23.74l-24.91,164.5h-34.31l-24.91-164.5Z" style="fill:#199fb5; stroke-width:0px;"></path>
    <path d="M2535.44,1252.59h25.85v164.5h-25.85v-164.5Z" style="fill:#199fb5; stroke-width:0px;"></path>
    <path d="M2585.73,1408.75c-6.43-7.13-9.64-17.35-9.64-30.67v-9.4h24.44v11.28c0,10.66,4.47,15.98,13.4,15.98,4.38,0,7.71-1.29,9.99-3.88,2.27-2.58,3.41-6.77,3.41-12.57,0-6.89-1.57-12.96-4.7-18.21-3.14-5.25-8.93-11.55-17.39-18.92-10.66-9.4-18.1-17.9-22.33-25.5-4.23-7.6-6.34-16.17-6.34-25.73,0-13,3.29-23.07,9.87-30.2,6.58-7.13,16.13-10.69,28.67-10.69s21.74,3.57,28.08,10.69c6.34,7.13,9.52,17.35,9.52,30.67v6.82h-24.44v-8.46c0-5.64-1.1-9.75-3.29-12.34-2.2-2.58-5.4-3.88-9.63-3.88-8.62,0-12.92,5.25-12.92,15.75,0,5.96,1.6,11.52,4.82,16.69,3.21,5.17,9.05,11.44,17.51,18.8,10.81,9.4,18.25,17.94,22.33,25.62,4.07,7.68,6.11,16.69,6.11,27.02,0,13.48-3.33,23.82-9.99,31.02-6.66,7.21-16.33,10.81-29.02,10.81s-22.01-3.56-28.44-10.69Z" style="fill:#199fb5; stroke-width:0px;"></path>
    <path d="M2667.98,1252.59h25.85v164.5h-25.85v-164.5Z" style="fill:#199fb5; stroke-width:0px;"></path>
    <path d="M2721.32,1408.63c-6.74-7.2-10.1-17.39-10.1-30.55v-86.48c0-13.16,3.37-23.34,10.1-30.55,6.73-7.2,16.45-10.81,29.14-10.81s22.4,3.61,29.14,10.81c6.73,7.21,10.1,17.39,10.1,30.55v86.48c0,13.16-3.37,23.35-10.1,30.55-6.74,7.21-16.45,10.81-29.14,10.81s-22.41-3.6-29.14-10.81ZM2763.86,1379.73v-89.77c0-10.81-4.46-16.22-13.4-16.22s-13.39,5.41-13.39,16.22v89.77c0,10.81,4.46,16.22,13.39,16.22s13.4-5.41,13.4-16.22Z" style="fill:#199fb5; stroke-width:0px;"></path>
    <path d="M2807.09,1252.59h32.43l25.15,98.46h.47v-98.46h23.03v164.5h-26.56l-31.02-120.08h-.47v120.08h-23.03v-164.5Z" style="fill:#199fb5; stroke-width:0px;"></path>
    <path d="M3972.25,1408.75c-6.43-7.13-9.63-17.35-9.63-30.67v-9.4h24.44v11.28c0,10.66,4.47,15.98,13.4,15.98,4.38,0,7.71-1.29,9.99-3.88,2.27-2.58,3.41-6.77,3.41-12.57,0-6.89-1.57-12.96-4.7-18.21-3.14-5.25-8.93-11.55-17.39-18.92-10.66-9.4-18.09-17.9-22.33-25.5-4.23-7.6-6.34-16.17-6.34-25.73,0-13,3.29-23.07,9.87-30.2,6.58-7.13,16.13-10.69,28.67-10.69s21.74,3.57,28.08,10.69c6.34,7.13,9.52,17.35,9.52,30.67v6.82h-24.44v-8.46c0-5.64-1.1-9.75-3.29-12.34-2.2-2.58-5.41-3.88-9.63-3.88-8.62,0-12.92,5.25-12.92,15.75,0,5.96,1.6,11.52,4.82,16.69,3.21,5.17,9.05,11.44,17.51,18.8,10.81,9.4,18.25,17.94,22.33,25.62,4.07,7.68,6.11,16.69,6.11,27.02,0,13.48-3.33,23.82-9.99,31.02-6.66,7.21-16.33,10.81-29.02,10.81s-22.01-3.56-28.44-10.69Z" style="fill:#199fb5; stroke-width:0px;"></path>
    <path d="M4074.71,1276.09h-27.03v-23.5h79.9v23.5h-27.03v141h-25.85v-141Z" style="fill:#199fb5; stroke-width:0px;"></path>
    <path d="M4140.04,1252.59h38.3c13.31,0,23.03,3.1,29.14,9.28,6.11,6.19,9.17,15.71,9.17,28.55v10.1c0,17.08-5.64,27.89-16.92,32.43v.47c6.26,1.88,10.69,5.72,13.28,11.52,2.58,5.8,3.88,13.55,3.88,23.27v28.9c0,4.7.15,8.5.47,11.4.31,2.9,1.09,5.76,2.35,8.58h-26.32c-.94-2.66-1.57-5.17-1.88-7.52-.32-2.35-.47-6.58-.47-12.69v-30.08c0-7.52-1.22-12.77-3.64-15.75-2.43-2.97-6.62-4.46-12.57-4.46h-8.93v70.5h-25.85v-164.5ZM4175.29,1323.09c5.17,0,9.05-1.33,11.63-4,2.58-2.66,3.88-7.13,3.88-13.4v-12.69c0-5.95-1.06-10.26-3.17-12.92-2.12-2.66-5.45-4-9.99-4h-11.75v47h9.4Z" style="fill:#199fb5; stroke-width:0px;"></path>
    <path d="M4254.72,1252.59h35.02l26.79,164.5h-25.85l-4.7-32.67v.47h-29.38l-4.7,32.19h-23.97l26.79-164.5ZM4282.92,1362.57l-11.51-81.31h-.47l-11.28,81.31h23.26Z" style="fill:#199fb5; stroke-width:0px;"></path>
    <path d="M4338.38,1276.09h-27.03v-23.5h79.9v23.5h-27.03v141h-25.85v-141Z" style="fill:#199fb5; stroke-width:0px;"></path>
    <path d="M4403.71,1252.59h70.5v23.5h-44.65v43.48h35.49v23.5h-35.49v50.52h44.65v23.5h-70.5v-164.5Z" style="fill:#199fb5; stroke-width:0px;"></path>
    <path d="M4497,1408.75c-6.58-7.13-9.87-17.35-9.87-30.67v-86.48c0-13.31,3.29-23.54,9.87-30.67,6.58-7.13,16.13-10.69,28.67-10.69s22.09,3.57,28.67,10.69c6.58,7.13,9.87,17.35,9.87,30.67v14.1h-24.44v-15.74c0-10.81-4.46-16.22-13.39-16.22s-13.4,5.41-13.4,16.22v90c0,10.66,4.46,15.98,13.4,15.98s13.39-5.32,13.39-15.98v-32.2h-12.92v-23.5h37.37v53.82c0,13.32-3.29,23.54-9.87,30.67-6.58,7.13-16.14,10.69-28.67,10.69s-22.09-3.56-28.67-10.69Z" style="fill:#199fb5; stroke-width:0px;"></path>
    <path d="M4601.1,1347.06l-31.25-94.47h27.5l17.62,60.4h.47l17.62-60.4h25.15l-31.25,94.47v70.03h-25.85v-70.03Z" style="fill:#199fb5; stroke-width:0px;"></path>
    <path d="M1594.54,2784.37h26.08l16.92,127.6h.47l16.92-127.6h23.74l-24.91,164.5h-34.31l-24.91-164.5Z" style="fill:#199fb5; stroke-width:0px;"></path>
    <path d="M1704.52,2784.37h35.02l26.79,164.5h-25.85l-4.7-32.67v.47h-29.38l-4.7,32.19h-23.97l26.79-164.5ZM1732.72,2894.35l-11.52-81.31h-.47l-11.28,81.31h23.27Z" style="fill:#199fb5; stroke-width:0px;"></path>
    <path d="M1778.77,2784.37h25.85v141h42.54v23.5h-68.39v-164.5Z" style="fill:#199fb5; stroke-width:0px;"></path>
    <path d="M1868.54,2940.53c-6.58-7.13-9.87-17.35-9.87-30.67v-125.49h25.85v127.37c0,5.64,1.13,9.72,3.41,12.22,2.27,2.51,5.52,3.76,9.75,3.76s7.48-1.25,9.75-3.76c2.27-2.5,3.41-6.58,3.41-12.22v-127.37h24.91v125.49c0,13.32-3.29,23.54-9.87,30.67-6.58,7.13-16.14,10.69-28.67,10.69s-22.09-3.56-28.67-10.69Z" style="fill:#199fb5; stroke-width:0px;"></path>
    <path d="M1954.08,2784.37h70.5v23.5h-44.65v43.48h35.49v23.5h-35.49v50.52h44.65v23.5h-70.5v-164.5Z" style="fill:#199fb5; stroke-width:0px;"></path>
    <path d="M2045.02,2940.53c-6.43-7.13-9.64-17.35-9.64-30.67v-9.4h24.44v11.28c0,10.66,4.47,15.98,13.4,15.98,4.38,0,7.71-1.29,9.99-3.88,2.27-2.58,3.41-6.77,3.41-12.57,0-6.89-1.57-12.96-4.7-18.21-3.14-5.25-8.93-11.55-17.39-18.92-10.66-9.4-18.1-17.9-22.33-25.5-4.23-7.6-6.34-16.17-6.34-25.73,0-13,3.29-23.07,9.87-30.2,6.58-7.13,16.13-10.69,28.67-10.69s21.74,3.57,28.08,10.69c6.34,7.13,9.52,17.35,9.52,30.67v6.82h-24.44v-8.46c0-5.64-1.1-9.75-3.29-12.34-2.2-2.58-5.4-3.88-9.63-3.88-8.62,0-12.92,5.25-12.92,15.75,0,5.96,1.6,11.51,4.82,16.68,3.21,5.17,9.05,11.44,17.51,18.8,10.81,9.4,18.25,17.94,22.33,25.62,4.07,7.68,6.11,16.69,6.11,27.03,0,13.47-3.33,23.82-9.99,31.02-6.66,7.21-16.33,10.81-29.02,10.81s-22.01-3.56-28.44-10.69Z" style="fill:#199fb5; stroke-width:0px;"></path>
    <path d="M3262.37,2940.53c-6.58-7.13-9.87-17.35-9.87-30.67v-86.48c0-13.31,3.29-23.54,9.87-30.67,6.58-7.13,16.13-10.69,28.67-10.69s22.09,3.57,28.67,10.69c6.58,7.13,9.87,17.35,9.87,30.67v14.1h-24.44v-15.75c0-10.81-4.46-16.22-13.4-16.22s-13.39,5.41-13.39,16.22v90c0,10.66,4.46,15.98,13.39,15.98s13.4-5.32,13.4-15.98v-32.2h-12.92v-23.5h37.36v53.82c0,13.32-3.29,23.54-9.87,30.67-6.58,7.13-16.14,10.69-28.67,10.69s-22.09-3.56-28.67-10.69Z" style="fill:#199fb5; stroke-width:0px;"></path>
    <path d="M3354.49,2940.41c-6.74-7.2-10.11-17.39-10.11-30.55v-86.48c0-13.16,3.37-23.34,10.11-30.55,6.73-7.2,16.45-10.81,29.14-10.81s22.4,3.61,29.14,10.81c6.73,7.21,10.1,17.39,10.1,30.55v86.48c0,13.16-3.37,23.35-10.1,30.55-6.74,7.21-16.45,10.81-29.14,10.81s-22.41-3.6-29.14-10.81ZM3397.03,2911.5v-89.77c0-10.81-4.46-16.22-13.4-16.22s-13.39,5.41-13.39,16.22v89.77c0,10.81,4.46,16.22,13.39,16.22s13.4-5.41,13.4-16.22Z" style="fill:#199fb5; stroke-width:0px;"></path>
    <path d="M3459.77,2784.37h35.02l26.79,164.5h-25.85l-4.7-32.67v.47h-29.38l-4.7,32.19h-23.97l26.79-164.5ZM3487.97,2894.35l-11.51-81.31h-.47l-11.28,81.31h23.26Z" style="fill:#199fb5; stroke-width:0px;"></path>
    <path d="M3534.03,2784.37h25.85v141h42.54v23.5h-68.39v-164.5Z" style="fill:#199fb5; stroke-width:0px;"></path>
    <path d="M3620.04,2940.53c-6.43-7.13-9.63-17.35-9.63-30.67v-9.4h24.44v11.28c0,10.66,4.47,15.98,13.4,15.98,4.38,0,7.71-1.29,9.99-3.88,2.27-2.58,3.41-6.77,3.41-12.57,0-6.89-1.57-12.96-4.7-18.21-3.14-5.25-8.93-11.55-17.39-18.92-10.66-9.4-18.09-17.9-22.33-25.5-4.23-7.6-6.34-16.17-6.34-25.73,0-13,3.29-23.07,9.87-30.2,6.58-7.13,16.13-10.69,28.67-10.69s21.74,3.57,28.08,10.69c6.34,7.13,9.52,17.35,9.52,30.67v6.82h-24.44v-8.46c0-5.64-1.1-9.75-3.29-12.34-2.2-2.58-5.41-3.88-9.63-3.88-8.62,0-12.92,5.25-12.92,15.75,0,5.96,1.6,11.51,4.82,16.68,3.21,5.17,9.05,11.44,17.51,18.8,10.81,9.4,18.25,17.94,22.33,25.62,4.07,7.68,6.11,16.69,6.11,27.03,0,13.47-3.33,23.82-9.99,31.02-6.66,7.21-16.33,10.81-29.02,10.81s-22.01-3.56-28.44-10.69Z" style="fill:#199fb5; stroke-width:0px;"></path>
    <path d="M4440.2,846.56c0,12.44-1.59,24.49-4.55,36-8.65,35.61-62.77,113.07-62.77,113.07-16.73,22.86-18.47,70.4-18.47,70.4v49.29h-114.72v-49.29s-1.77-47.54-18.49-70.4c0,0-51.33-77.83-62.73-111.92-3.18-11.84-4.87-24.3-4.87-37.15,0-79.14,64.16-143.31,143.31-143.31s143.31,64.17,143.31,143.31Z" style="fill:none; stroke:#2b3990; stroke-miterlimit:10; stroke-width:11.92px;"></path>
    <path d="M4158.45,883.71c-.02-.4-.02-.77-.02-1.15" style="fill:none; stroke:#199fb5; stroke-miterlimit:10; stroke-width:11.92px;"></path>
    <line x1="4239.68" y1="1066.04" x2="4354.88" y2="1066.04" style="fill:none; stroke:#2b3990; stroke-miterlimit:10; stroke-width:11.92px;"></line>
    <line x1="4232.99" y1="1022.49" x2="4359.67" y2="1022.49" style="fill:none; stroke:#2b3990; stroke-miterlimit:10; stroke-width:11.92px;"></line>
    <line x1="4262.42" y1="1119.04" x2="4262.42" y2="1128.72" style="fill:none; stroke:#2b3990; stroke-linecap:round; stroke-linejoin:round; stroke-width:17.88px;"></line>
    <line x1="4327.39" y1="1119.04" x2="4327.39" y2="1128.72" style="fill:none; stroke:#2b3990; stroke-linecap:round; stroke-linejoin:round; stroke-width:17.88px;"></line>
    <path d="M4355.12,864.7l37.01,22.65-19.98,32.66-37.01-22.67c-5.68,4.77-12.24,8.5-19.43,10.91v43.37h-38.28v-43.37c-7.19-2.4-13.75-6.12-19.43-10.89l-36.99,22.65-20-32.66,36.99-22.65c-1.01-4.31-1.53-8.82-1.53-13.43s.52-9.1,1.53-13.41l-36.99-22.65,20-32.66,36.99,22.65c5.68-4.75,12.24-8.48,19.43-10.87v-43.39h38.28v43.39c7.19,2.38,13.75,6.12,19.43,10.89l37.01-22.67,19.98,32.66-37.01,22.67c1.01,4.29,1.53,8.78,1.53,13.39s-.52,9.12-1.53,13.43Z" style="fill:none; stroke:#2b3990; stroke-miterlimit:10; stroke-width:7.95px;"></path>
    <circle cx="4296.57" cy="851.28" r="28.91" style="fill:none; stroke:#2b3990; stroke-miterlimit:10; stroke-width:8.56px;"></circle>
    <line x1="4296.57" y1="679.2" x2="4296.57" y2="654.12" style="fill:none; stroke:#2b3990; stroke-linecap:round; stroke-linejoin:round; stroke-width:17.88px;"></line>
    <line x1="4462.87" y1="846" x2="4487.95" y2="846" style="fill:none; stroke:#2b3990; stroke-linecap:round; stroke-linejoin:round; stroke-width:17.88px;"></line>
    <line x1="4099.82" y1="846" x2="4124.9" y2="846" style="fill:none; stroke:#2b3990; stroke-linecap:round; stroke-linejoin:round; stroke-width:17.88px;"></line>
    <line x1="4125.64" y1="744.58" x2="4146.82" y2="758.01" style="fill:none; stroke:#2b3990; stroke-linecap:round; stroke-linejoin:round; stroke-width:17.88px;"></line>
    <line x1="4197.01" y1="675.57" x2="4210.82" y2="696.51" style="fill:none; stroke:#2b3990; stroke-linecap:round; stroke-linejoin:round; stroke-width:17.88px;"></line>
    <line x1="4462.87" y1="744.58" x2="4441.68" y2="758.01" style="fill:none; stroke:#2b3990; stroke-linecap:round; stroke-linejoin:round; stroke-width:17.88px;"></line>
    <line x1="4391.5" y1="675.57" x2="4377.69" y2="696.51" style="fill:none; stroke:#2b3990; stroke-linecap:round; stroke-linejoin:round; stroke-width:17.88px;"></line>
    <path d="M4390.33,1145.94v-54.53s1.89-26.62,15.85-38.3l54.53-54.86s10.06-12.01,16.56,0c0,0,5.19,13.31-4.22,27.92,0,0-10.39,21.42-12.66,23.37,0,0,10.06-7.79,14.28-12.66,0,0,24.02-25.64,25.32-45.45l9.74-67.19s3.57-15.26,21.75-14.93v97.71s.65,18.5-8.44,30.19c0,0-19.8,28.57-53.89,57.78,0,0-8.05,7.47-8.24,25.64v25.32h-70.58Z" style="fill:#f1c9a0; stroke-width:0px;"></path>
    <path d="M4201.26,1145.94v-54.53s-1.89-26.62-15.85-38.3l-54.53-54.86s-10.06-12.01-16.56,0c0,0-5.19,13.31,4.22,27.92,0,0,10.39,21.42,12.66,23.37,0,0-10.06-7.79-14.28-12.66,0,0-24.02-25.64-25.32-45.45l-9.74-67.19s-3.57-15.26-21.75-14.93v97.71s-.65,18.5,8.44,30.19c0,0,19.8,28.57,53.89,57.78,0,0,8.05,7.47,8.24,25.64v25.32s70.58,0,70.58,0Z" style="fill:#f1c9a0; stroke-width:0px;"></path>
    <rect x="4373.07" y="1138.79" width="104.2" height="48.69" style="fill:#58595b; stroke-width:0px;"></rect>
    <rect x="4373.07" y="1138.79" width="34.52" height="48.69" style="fill:#414042; stroke-width:0px;"></rect>
    <rect x="4114.32" y="1138.79" width="104.2" height="48.69" transform="translate(8332.84 2326.28) rotate(-180)" style="fill:#58595b; stroke-width:0px;"></rect>
    <rect x="4184" y="1138.79" width="34.52" height="48.69" transform="translate(8402.52 2326.28) rotate(-180)" style="fill:#414042; stroke-width:0px;"></rect>
    <path d="M2414.54,920.19c295.14,282.15,519.44,0,519.44,0-295.14-282.15-519.44,0-519.44,0Z" style="fill:none; stroke:#2b3990; stroke-linecap:round; stroke-linejoin:round; stroke-width:21.63px;"></path>
    <circle cx="2672.41" cy="899.31" r="97.49" style="fill:none; stroke:#2b3990; stroke-linecap:round; stroke-linejoin:round; stroke-width:24.38px;"></circle>
    <line x1="2676.11" y1="649.63" x2="2676.11" y2="742.32" style="fill:none; stroke:#2b3990; stroke-linecap:round; stroke-linejoin:round; stroke-width:21.63px;"></line>
    <line x1="2880.54" y1="704.22" x2="2819.61" y2="774.07" style="fill:none; stroke:#2b3990; stroke-linecap:round; stroke-linejoin:round; stroke-width:21.63px;"></line>
    <line x1="2467.98" y1="704.22" x2="2528.91" y2="774.07" style="fill:none; stroke:#2b3990; stroke-linecap:round; stroke-linejoin:round; stroke-width:21.63px;"></line>
    <line x1="2672.41" y1="1188.25" x2="2672.41" y2="1095.55" style="fill:none; stroke:#2b3990; stroke-linecap:round; stroke-linejoin:round; stroke-width:21.63px;"></line>
    <line x1="2467.98" y1="1133.65" x2="2528.91" y2="1063.8" style="fill:none; stroke:#2b3990; stroke-linecap:round; stroke-linejoin:round; stroke-width:21.63px;"></line>
    <line x1="2880.54" y1="1133.65" x2="2819.61" y2="1063.8" style="fill:none; stroke:#2b3990; stroke-linecap:round; stroke-linejoin:round; stroke-width:21.63px;"></line>
    <path d="M2672.41,833.39c-5.62,0-11.06.71-16.27,2.03,12.93,4.41,22.24,16.65,22.24,31.07,0,18.13-14.7,32.83-32.83,32.83-16.7,0-30.48-12.48-32.55-28.61-4.18,8.65-6.52,18.36-6.52,28.61,0,36.41,29.52,65.92,65.92,65.92s65.92-29.52,65.92-65.92-29.51-65.92-65.92-65.92Z" style="fill:#2b3990; stroke-width:0px;"></path>
    <polygon points="2000.83 2356.14 1882.89 2356.14 1844.1 2356.14 1726.16 2356.14 1636.82 2445.47 1636.82 2493.28 1862.91 2719.36 1864.08 2719.36 2090.16 2493.28 2090.16 2445.47 2000.83 2356.14" style="fill:none; stroke:#2b3990; stroke-linecap:round; stroke-linejoin:round; stroke-width:25.21px;"></polygon>
    <line x1="1642.7" y1="2464.28" x2="2084.68" y2="2464.28" style="fill:none; stroke:#2b3990; stroke-linecap:round; stroke-linejoin:round; stroke-width:25.21px;"></line>
    <line x1="1945.78" y1="2464.28" x2="1863.69" y2="2710.35" style="fill:none; stroke:#2b3990; stroke-linecap:round; stroke-linejoin:round; stroke-width:25.21px;"></line>
    <line x1="1787.58" y1="2464.28" x2="1869.67" y2="2710.35" style="fill:none; stroke:#2b3990; stroke-linecap:round; stroke-linejoin:round; stroke-width:25.21px;"></line>
    <path d="M1735.56,2374.16c1.76,2.35,51.72,90.12,51.72,90.12l76.41-96.59" style="fill:none; stroke:#2b3990; stroke-linecap:round; stroke-linejoin:round; stroke-width:25.21px;"></path>
    <path d="M1997.8,2374.16c-1.76,2.35-51.72,90.12-51.72,90.12l-76.41-96.59" style="fill:none; stroke:#2b3990; stroke-linecap:round; stroke-linejoin:round; stroke-width:25.21px;"></path>
    <path d="M1823.38,2306.09l-15.33-14c-8.68-7.93-22.43-6.08-28.7,3.87l-11.07,17.56,1.39-20.71c.79-11.74-9.23-21.33-20.92-20.03l-20.63,2.3,17.06-11.83c9.67-6.7,10.92-20.52,2.61-28.84l-14.66-14.7,19.88,5.97c11.27,3.38,22.85-4.25,24.18-15.94l2.35-20.63,7.73,19.27c4.38,10.92,17.57,15.21,27.54,8.96l17.59-11.02-10.24,18.06c-5.8,10.23-.94,23.22,10.16,27.12l19.59,6.88-20.5,3.25c-11.62,1.84-18.74,13.75-14.87,24.85l6.83,19.6Z" style="fill:#2b3990; stroke-width:0px;"></path>
    <path d="M1897.14,2193.9l-7.89-7.21c-4.47-4.09-11.55-3.13-14.78,1.99l-5.7,9.05.72-10.67c.41-6.04-4.75-10.99-10.78-10.31l-10.63,1.18,8.79-6.09c4.98-3.45,5.62-10.57,1.34-14.86l-7.55-7.57,10.24,3.07c5.8,1.74,11.77-2.19,12.45-8.21l1.21-10.62,3.98,9.92c2.26,5.62,9.05,7.83,14.18,4.62l9.06-5.68-5.28,9.3c-2.99,5.27-.48,11.96,5.23,13.97l10.09,3.54-10.56,1.67c-5.98.95-9.65,7.08-7.66,12.8l3.52,10.1Z" style="fill:#2b3990; stroke-width:0px;"></path>
    <path d="M1977.88,2316.36l-10.46-9.55c-5.92-5.41-15.3-4.15-19.58,2.64l-7.55,11.98.95-14.13c.54-8.01-6.3-14.55-14.27-13.66l-14.08,1.57,11.64-8.07c6.6-4.57,7.45-14,1.78-19.68l-10-10.03,13.56,4.07c7.69,2.31,15.59-2.9,16.49-10.88l1.6-14.07,5.27,13.14c2.99,7.45,11.99,10.38,18.79,6.12l12-7.52-6.99,12.32c-3.96,6.98-.64,15.84,6.93,18.5l13.36,4.69-13.99,2.22c-7.93,1.26-12.78,9.38-10.14,16.96l4.66,13.37Z" style="fill:#2b3990; stroke-width:0px;"></path>
    <rect x="3231.16" y="2250.15" width="346.33" height="443.13" style="fill:none; stroke:#2b3990; stroke-linecap:round; stroke-linejoin:round; stroke-width:19.38px;"></rect>
    <rect x="3332.39" y="2205.75" width="145.64" height="44.4" style="fill:none; stroke:#2b3990; stroke-linecap:round; stroke-linejoin:round; stroke-width:19.38px;"></rect>
    <rect x="3277.34" y="2314.98" width="71.93" height="66.6" rx="15.22" ry="15.22" style="fill:none; stroke:#199fb5; stroke-linecap:round; stroke-linejoin:round; stroke-width:3.34px;"></rect>
    <path d="M3303.29,2336.78c1.58,1.58,18.16,19.34,18.16,19.34l51.7-49.33" style="fill:none; stroke:#199fb5; stroke-linecap:round; stroke-linejoin:round; stroke-width:14.7px;"></path>
    <rect x="3277.34" y="2440.52" width="71.93" height="66.6" rx="15.22" ry="15.22" style="fill:none; stroke:#199fb5; stroke-linecap:round; stroke-linejoin:round; stroke-width:3.34px;"></rect>
    <path d="M3303.29,2462.32c1.58,1.58,18.16,19.34,18.16,19.34l51.7-49.33" style="fill:none; stroke:#199fb5; stroke-linecap:round; stroke-linejoin:round; stroke-width:14.7px;"></path>
    <rect x="3277.34" y="2564.68" width="71.93" height="66.6" rx="15.22" ry="15.22" style="fill:none; stroke:#199fb5; stroke-linecap:round; stroke-linejoin:round; stroke-width:3.34px;"></rect>
    <path d="M3303.29,2586.49c1.58,1.58,18.16,19.34,18.16,19.34l51.7-49.33" style="fill:none; stroke:#199fb5; stroke-linecap:round; stroke-linejoin:round; stroke-width:14.7px;"></path>
    <path d="M3741.2,2486.04c11.9,20.76,18.71,44.81,18.71,70.45,0,78.34-63.51,141.85-141.84,141.85s-141.84-63.51-141.84-141.85,63.51-141.84,141.84-141.84c33.55,0,64.37,11.66,88.66,31.13l31.26-26.74c-32.06-28-74.01-44.96-119.92-44.96-100.75,0-182.42,81.67-182.42,182.42s81.67,182.42,182.42,182.42,182.42-81.67,182.42-182.42c0-35.73-10.28-69.05-28.03-97.18l-31.25,26.73Z" style="fill:#2b3990; stroke-width:0px;"></path>
    <path d="M3707.77,2556.49c0,49.54-40.16,89.71-89.71,89.71s-89.71-40.16-89.71-89.71,40.16-89.71,89.71-89.71c17.62,0,34.04,5.08,47.9,13.85l40.76-34.86c-24.29-19.47-55.11-31.13-88.66-31.13-78.34,0-141.84,63.51-141.84,141.84s63.51,141.85,141.84,141.85,141.84-63.51,141.84-141.85c0-25.64-6.81-49.69-18.71-70.45l-40.77,34.87c4.72,10.91,7.34,22.94,7.34,35.58Z" style="fill:#fff; stroke-width:0px;"></path>
    <path d="M3528.36,2556.49c0,49.54,40.16,89.71,89.71,89.71s89.71-40.16,89.71-89.71c0-12.64-2.62-24.67-7.34-35.58l-45.4,38.84c-1.65,18.97-17.57,33.86-36.97,33.86-20.5,0-37.12-16.62-37.12-37.12s16.62-37.12,37.12-37.12c.84,0,1.68.04,2.51.09l45.39-38.83c-13.86-8.77-30.29-13.85-47.9-13.85-49.54,0-89.71,40.16-89.71,89.71Z" style="fill:#2b3990; stroke-width:0px;"></path>
    <path d="M3618.07,2583c-7.76,0-15.11-3.38-20.15-9.28-9.5-11.11-8.19-27.87,2.91-37.37l19.74-16.88c-.83-.06-1.66-.09-2.51-.09-20.5,0-37.12,16.62-37.12,37.12s16.62,37.12,37.12,37.12c19.4,0,35.32-14.89,36.97-33.86l-19.74,16.88c-4.8,4.1-10.91,6.36-17.22,6.36Z" style="fill:#fff; stroke-width:0px;"></path>
    <line x1="3617.99" y1="2556.49" x2="3776.77" y2="2417.24" style="fill:none; stroke:#199fb5; stroke-linecap:round; stroke-linejoin:round; stroke-width:34.07px;"></line>
    <path d="M3775.63,2351.49c-1.78,2.18,0,66.9,0,66.9l63.94,11.65" style="fill:none; stroke:#199fb5; stroke-linecap:round; stroke-linejoin:round; stroke-width:34.07px;"></path>
  </g>
</svg>
