<?xml version="1.0" encoding="UTF-8"?>
<svg xmlns="http://www.w3.org/2000/svg" xmlns:xlink="http://www.w3.org/1999/xlink" viewBox="0 0 5442.52 3724.72">
  <defs>
    <linearGradient id="linear-gradient" x1="1595.94" y1="162.35" x2="1595.94" y2="1698.08" gradientUnits="userSpaceOnUse">
      <stop offset="0" stop-color="#199fb5"></stop>
      <stop offset=".05" stop-color="#2da7ba"></stop>
      <stop offset=".17" stop-color="#5cbbc9"></stop>
      <stop offset=".3" stop-color="#86ccd5"></stop>
      <stop offset=".43" stop-color="#a7dadf"></stop>
      <stop offset=".57" stop-color="#c1e5e7"></stop>
      <stop offset=".7" stop-color="#d4ecec"></stop>
      <stop offset=".84" stop-color="#dff1ef"></stop>
      <stop offset="1" stop-color="#e3f3f1"></stop>
    </linearGradient>
    <linearGradient id="linear-gradient-2" x1="3794.07" x2="3794.07" xlink:href="#linear-gradient"></linearGradient>
    <linearGradient id="linear-gradient-3" x1="3794.07" y1="2002.61" x2="3794.07" y2="3538.34" xlink:href="#linear-gradient"></linearGradient>
    <linearGradient id="linear-gradient-4" x1="1595.94" y1="2002.61" x2="1595.94" y2="3538.34" xlink:href="#linear-gradient"></linearGradient>
  </defs>
  <g id="Layer_2" data-name="Layer 2">
    <g>
      <circle cx="1595.94" cy="929.23" r="802.52" style="fill: url(#linear-gradient); stroke: #2b3990; stroke-miterlimit: 10; stroke-width: 11px;"></circle>
      <circle cx="1595.94" cy="929.23" r="652.42" style="fill: #fff; stroke: #2b3990; stroke-miterlimit: 10; stroke-width: 9px;"></circle>
    </g>
    <g>
      <circle cx="3794.07" cy="929.23" r="802.52" style="fill: url(#linear-gradient-2); stroke: #2b3990; stroke-miterlimit: 10; stroke-width: 11px;"></circle>
      <circle cx="3794.07" cy="929.23" r="652.42" style="fill: #fff; stroke: #2b3990; stroke-miterlimit: 10; stroke-width: 9px;"></circle>
    </g>
    <g>
      <circle cx="3794.07" cy="2769.49" r="802.52" style="fill: url(#linear-gradient-3); stroke: #2b3990; stroke-miterlimit: 10; stroke-width: 11px;"></circle>
      <circle cx="3794.07" cy="2769.49" r="652.42" style="fill: #fff; stroke: #2b3990; stroke-miterlimit: 10; stroke-width: 9px;"></circle>
    </g>
    <g>
      <circle cx="1595.94" cy="2769.49" r="802.52" style="fill: url(#linear-gradient-4); stroke: #2b3990; stroke-miterlimit: 10; stroke-width: 11px;"></circle>
      <circle cx="1595.94" cy="2769.49" r="652.42" style="fill: #fff; stroke: #2b3990; stroke-miterlimit: 10; stroke-width: 9px;"></circle>
    </g>
  </g>
  <g id="Layer_4" data-name="Layer 4">
    <g id="gMrLPN">
      <g>
        <path d="M1861.52,2705.92c-1.97,16.98-13.21,28.02-24.52,39.28-38.45,38.29-76.7,76.78-114.95,115.28-14.2,14.29-30.69,21.94-51.35,21.79-64.21-.46-128.42-.1-192.63-.33-7.07-.03-11.99,2.36-16.71,7.45-10.39,11.18-21.37,21.82-32.05,32.74-5.54,5.66-10.77,5.75-16.46.03-32.55-32.67-65.17-65.28-97.85-97.82-5.61-5.59-5.87-10.85-.25-16.45,32.22-32.13,64.21-64.5,96.72-96.35,18.72-18.33,42.06-27.1,67.98-27.38,50.14-.54,100.29-.37,150.44-.1,24.6.13,41.67,16.02,44.17,40,1.52,14.61-9.98,33.41-26.11,38.1-19.84,5.76-40.37,9.14-60.6,13.55-3.55.77-7.11,1.56-11.4,4.68,2.85.91,5.69,2.6,8.55,2.62,30.57.18,61.15.17,91.72-.07,2.67-.02,6-1.33,7.89-3.18,26.72-26.28,53.21-52.79,79.83-79.17,9.3-9.22,18.49-18.59,28.28-27.27,23.77-21.09,60.71-8.9,67.5,22.02.51,2.33,1.2,4.62,1.81,6.93v3.67ZM1530.23,2766.03c27.24-5.56,50.81-10.35,74.38-15.18,11.04-2.26,22.2-4.13,33.07-7.04,10.6-2.84,16.03-11.84,14.67-22.27-1.2-9.26-8.32-15.59-18.48-15.61-53.23-.09-106.45-.27-159.67.16-17.71.14-33.49,6.96-46.23,19.38-23.84,23.25-47.33,46.85-70.92,70.36-6.61,6.58-13.04,13.34-18.43,18.87,28.29,28.54,55.73,56.21,84.24,84.96,7.12-7.51,14.63-15.1,21.77-23.04,10.7-11.91,23.56-16.77,39.83-16.61,63.02.61,126.04.08,189.06.4,13.48.07,23.71-4.48,33.12-14.22,25.43-26.32,51.64-51.87,77.54-77.73,16.62-16.59,33.64-32.8,49.71-49.9,11.43-12.17,6.08-30.84-9.14-34.18-10.81-2.37-18.75,3.27-25.92,10.5-34.55,34.83-69.04,69.71-103.86,104.27-3.07,3.05-8.32,5.47-12.59,5.52-34.86.44-69.74.31-104.61.12-3.11-.02-7.02-.83-9.19-2.78-12.43-11.18-24.45-22.83-38.35-35.96Z" style="fill: #2b3990; stroke-width: 0px;"></path>
        <path d="M1661.43,2416.32c13.82-8.44,25.87-18.26,39.65-23.77,48.85-19.53,106.57,15.41,114.85,67.44,4.6,28.92-7.31,51.93-23.22,73.67-29.31,40.05-66.85,71.72-106.02,101.58-7.5,5.72-15.17,11.2-23.88,17.61-17.91-14-36.93-26.94-53.64-42.38-24.56-22.68-48.3-46.4-70.78-71.14-13.27-14.6-23.89-31.87-27.42-52.07-6.31-36.1,11.61-71.1,45.68-90.01,32.32-17.94,73.41-11.98,99.59,14.41,2.11,2.13,4.47,4.01,5.2,4.66ZM1661.88,2452.71c-2.1-3.4-4.92-8.05-7.83-12.64-25.49-40.37-81.15-43.09-110.07-5.39-16.86,21.99-17.62,49.39-1,75.08,30.03,46.42,72.11,80.72,115.89,113.1,2.11,1.56,7.68.75,10.25-1,9.29-6.34,18.16-13.34,26.87-20.47,29.57-24.18,58.37-49.33,79.99-81.13,8.23-12.11,16.44-26.02,18.65-40.06,4.25-27.06-7.97-48.99-31.66-62.91-23.38-13.74-48-13.13-69.92,2.33-11.99,8.46-20.66,21.65-31.17,33.08Z" style="fill: #2b3990; stroke-width: 0px;"></path>
      </g>
    </g>
    <g>
      <path d="M1429.19,1199.78h-23.23v-20.2h68.68v20.2h-23.23v121.2h-22.22v-121.2Z" style="fill: #199fb5; stroke-width: 0px;"></path>
      <path d="M1485.35,1179.58h32.93c11.44,0,19.8,2.66,25.05,7.98,5.25,5.32,7.88,13.5,7.88,24.54v8.69c0,14.68-4.85,23.97-14.54,27.88v.4c5.38,1.62,9.19,4.92,11.41,9.9,2.22,4.98,3.33,11.65,3.33,20v24.85c0,4.04.13,7.31.4,9.8.27,2.49.94,4.95,2.02,7.37h-22.62c-.81-2.29-1.35-4.44-1.62-6.46-.27-2.02-.4-5.66-.4-10.91v-25.86c0-6.46-1.04-10.97-3.13-13.53-2.09-2.56-5.69-3.84-10.81-3.84h-7.68v60.6h-22.22v-141.4ZM1515.65,1240.18c4.44,0,7.78-1.14,10-3.43,2.22-2.29,3.33-6.13,3.33-11.51v-10.91c0-5.12-.91-8.82-2.73-11.11-1.82-2.29-4.68-3.43-8.58-3.43h-10.1v40.4h8.08Z" style="fill: #199fb5; stroke-width: 0px;"></path>
      <path d="M1574.43,1313.8c-5.66-6.13-8.48-14.91-8.48-26.36v-107.87h22.22v109.48c0,4.85.98,8.35,2.93,10.5,1.95,2.16,4.75,3.23,8.38,3.23s6.43-1.08,8.38-3.23c1.95-2.15,2.93-5.66,2.93-10.5v-109.48h21.41v107.87c0,11.45-2.83,20.23-8.48,26.36-5.66,6.13-13.87,9.19-24.64,9.19s-18.99-3.06-24.64-9.19Z" style="fill: #199fb5; stroke-width: 0px;"></path>
      <path d="M1652.4,1313.8c-5.52-6.13-8.28-14.91-8.28-26.36v-8.08h21.01v9.7c0,9.16,3.84,13.74,11.51,13.74,3.77,0,6.63-1.11,8.58-3.33,1.95-2.22,2.93-5.82,2.93-10.81,0-5.92-1.35-11.14-4.04-15.66-2.7-4.51-7.68-9.93-14.95-16.26-9.16-8.08-15.55-15.38-19.19-21.92-3.64-6.53-5.45-13.9-5.45-22.12,0-11.18,2.83-19.83,8.48-25.96,5.66-6.13,13.87-9.19,24.64-9.19s18.69,3.06,24.14,9.19c5.45,6.13,8.18,14.92,8.18,26.36v5.86h-21.01v-7.27c0-4.85-.94-8.38-2.83-10.6-1.89-2.22-4.65-3.33-8.28-3.33-7.41,0-11.11,4.51-11.11,13.53,0,5.12,1.38,9.9,4.14,14.34,2.76,4.44,7.78,9.83,15.05,16.16,9.29,8.08,15.69,15.42,19.19,22.02,3.5,6.6,5.25,14.34,5.25,23.23,0,11.58-2.86,20.47-8.58,26.66-5.73,6.2-14.04,9.29-24.95,9.29s-18.92-3.06-24.44-9.19Z" style="fill: #199fb5; stroke-width: 0px;"></path>
      <path d="M1740.47,1199.78h-23.23v-20.2h68.68v20.2h-23.23v121.2h-22.22v-121.2Z" style="fill: #199fb5; stroke-width: 0px;"></path>
    </g>
    <g>
      <path d="M3549.96,1179.58h22.22v121.2h36.56v20.2h-58.78v-141.4Z" style="fill: #199fb5; stroke-width: 0px;"></path>
      <path d="M3625.71,1313.7c-5.79-6.19-8.69-14.95-8.69-26.26v-74.34c0-11.31,2.89-20.06,8.69-26.26,5.79-6.19,14.14-9.29,25.05-9.29s19.26,3.1,25.05,9.29c5.79,6.2,8.69,14.95,8.69,26.26v74.34c0,11.31-2.9,20.07-8.69,26.26-5.79,6.2-14.14,9.29-25.05,9.29s-19.26-3.1-25.05-9.29ZM3662.27,1288.86v-77.16c0-9.29-3.84-13.94-11.51-13.94s-11.51,4.65-11.51,13.94v77.16c0,9.29,3.84,13.94,11.51,13.94s11.51-4.65,11.51-13.94Z" style="fill: #199fb5; stroke-width: 0px;"></path>
      <path d="M3716.2,1260.78l-26.87-81.2h23.63l15.15,51.91h.4l15.15-51.91h21.61l-26.87,81.2v60.2h-22.22v-60.2Z" style="fill: #199fb5; stroke-width: 0px;"></path>
      <path d="M3783.27,1179.58h30.1l23.03,141.4h-22.22l-4.04-28.08v.4h-25.25l-4.04,27.67h-20.6l23.03-141.4ZM3807.51,1274.11l-9.9-69.89h-.4l-9.7,69.89h20Z" style="fill: #199fb5; stroke-width: 0px;"></path>
      <path d="M3847.1,1179.58h22.22v121.2h36.56v20.2h-58.78v-141.4Z" style="fill: #199fb5; stroke-width: 0px;"></path>
      <path d="M3918.2,1199.78h-23.23v-20.2h68.68v20.2h-23.23v121.2h-22.22v-121.2Z" style="fill: #199fb5; stroke-width: 0px;"></path>
      <path d="M3995.57,1260.78l-26.87-81.2h23.63l15.15,51.91h.4l15.15-51.91h21.61l-26.87,81.2v60.2h-22.22v-60.2Z" style="fill: #199fb5; stroke-width: 0px;"></path>
    </g>
    <g>
      <path d="M1337.99,3045.8h32.93c11.44,0,19.8,2.66,25.05,7.98,5.25,5.32,7.88,13.5,7.88,24.54v8.69c0,14.68-4.85,23.97-14.54,27.88v.4c5.38,1.62,9.19,4.92,11.41,9.9,2.22,4.98,3.33,11.65,3.33,20v24.85c0,4.04.13,7.31.4,9.8.27,2.49.94,4.95,2.02,7.37h-22.62c-.81-2.29-1.35-4.44-1.62-6.46-.27-2.02-.4-5.66-.4-10.91v-25.86c0-6.46-1.04-10.97-3.13-13.53-2.09-2.56-5.69-3.84-10.81-3.84h-7.68v60.6h-22.22v-141.4ZM1368.29,3106.41c4.44,0,7.78-1.14,10-3.43,2.22-2.29,3.33-6.13,3.33-11.51v-10.91c0-5.12-.91-8.82-2.73-11.11-1.82-2.29-4.68-3.43-8.58-3.43h-10.1v40.4h8.08Z" style="fill: #199fb5; stroke-width: 0px;"></path>
      <path d="M1419.4,3045.8h60.6v20.2h-38.38v37.37h30.5v20.2h-30.5v43.43h38.38v20.2h-60.6v-141.4Z" style="fill: #199fb5; stroke-width: 0px;"></path>
      <path d="M1497.57,3180.03c-5.52-6.13-8.28-14.91-8.28-26.36v-8.08h21.01v9.7c0,9.16,3.84,13.74,11.51,13.74,3.77,0,6.63-1.11,8.58-3.33,1.95-2.22,2.93-5.82,2.93-10.81,0-5.92-1.35-11.14-4.04-15.65-2.7-4.51-7.68-9.93-14.95-16.26-9.16-8.08-15.55-15.38-19.19-21.92-3.64-6.53-5.45-13.9-5.45-22.12,0-11.18,2.83-19.83,8.48-25.96,5.66-6.13,13.87-9.19,24.64-9.19s18.69,3.06,24.14,9.19c5.45,6.13,8.18,14.92,8.18,26.36v5.86h-21.01v-7.27c0-4.85-.94-8.38-2.83-10.6-1.89-2.22-4.65-3.33-8.28-3.33-7.41,0-11.11,4.51-11.11,13.54,0,5.12,1.38,9.9,4.14,14.34,2.76,4.44,7.78,9.83,15.05,16.16,9.29,8.08,15.69,15.42,19.19,22.02,3.5,6.6,5.25,14.34,5.25,23.23,0,11.58-2.86,20.47-8.58,26.66-5.73,6.2-14.04,9.29-24.95,9.29s-18.92-3.06-24.44-9.19Z" style="fill: #199fb5; stroke-width: 0px;"></path>
      <path d="M1568.27,3045.8h32.72c11.04,0,19.32,2.96,24.85,8.89,5.52,5.93,8.28,14.61,8.28,26.06v13.94c0,11.45-2.76,20.13-8.28,26.06-5.52,5.93-13.81,8.89-24.85,8.89h-10.5v57.57h-22.22v-141.4ZM1600.99,3109.44c3.64,0,6.36-1.01,8.18-3.03s2.73-5.45,2.73-10.3v-16.77c0-4.85-.91-8.28-2.73-10.3s-4.54-3.03-8.18-3.03h-10.5v43.43h10.5Z" style="fill: #199fb5; stroke-width: 0px;"></path>
      <path d="M1646.24,3045.8h60.6v20.2h-38.38v37.37h30.5v20.2h-30.5v43.43h38.38v20.2h-60.6v-141.4Z" style="fill: #199fb5; stroke-width: 0px;"></path>
      <path d="M1726.53,3180.13c-5.59-6.06-8.38-14.61-8.38-25.65v-75.95c0-11.04,2.79-19.59,8.38-25.65,5.59-6.06,13.7-9.09,24.34-9.09s18.75,3.03,24.34,9.09c5.59,6.06,8.38,14.61,8.38,25.65v14.95h-21.01v-16.36c0-8.75-3.71-13.13-11.11-13.13s-11.11,4.38-11.11,13.13v78.98c0,8.62,3.7,12.93,11.11,12.93s11.11-4.31,11.11-12.93v-21.62h21.01v20c0,11.04-2.8,19.59-8.38,25.65-5.59,6.06-13.7,9.09-24.34,9.09s-18.75-3.03-24.34-9.09Z" style="fill: #199fb5; stroke-width: 0px;"></path>
      <path d="M1814.3,3066h-23.23v-20.2h68.68v20.2h-23.23v121.2h-22.22v-121.2Z" style="fill: #199fb5; stroke-width: 0px;"></path>
    </g>
    <g>
      <path d="M3438.36,3180.03c-5.52-6.13-8.28-14.91-8.28-26.36v-8.08h21.01v9.7c0,9.16,3.84,13.74,11.51,13.74,3.77,0,6.63-1.11,8.59-3.33,1.95-2.22,2.93-5.82,2.93-10.81,0-5.92-1.35-11.14-4.04-15.66-2.7-4.51-7.68-9.93-14.95-16.26-9.16-8.08-15.55-15.38-19.19-21.92-3.63-6.53-5.45-13.9-5.45-22.12,0-11.18,2.83-19.83,8.48-25.96,5.66-6.13,13.87-9.19,24.64-9.19s18.68,3.06,24.14,9.19c5.45,6.13,8.18,14.92,8.18,26.36v5.86h-21.01v-7.27c0-4.85-.94-8.38-2.83-10.61-1.89-2.22-4.65-3.33-8.28-3.33-7.41,0-11.11,4.51-11.11,13.53,0,5.12,1.38,9.9,4.14,14.34,2.76,4.44,7.78,9.83,15.05,16.16,9.29,8.08,15.69,15.42,19.19,22.02,3.5,6.6,5.25,14.34,5.25,23.23,0,11.58-2.86,20.47-8.58,26.66-5.73,6.2-14.04,9.29-24.95,9.29s-18.92-3.06-24.44-9.19Z" style="fill: #199fb5; stroke-width: 0px;"></path>
      <path d="M3516.73,3180.03c-5.66-6.13-8.48-14.91-8.48-26.36v-107.87h22.22v109.48c0,4.85.98,8.35,2.93,10.5,1.95,2.16,4.75,3.23,8.38,3.23s6.43-1.08,8.38-3.23c1.95-2.15,2.93-5.66,2.93-10.5v-109.48h21.41v107.87c0,11.45-2.83,20.23-8.48,26.36-5.66,6.13-13.87,9.19-24.64,9.19s-18.99-3.06-24.64-9.19Z" style="fill: #199fb5; stroke-width: 0px;"></path>
      <path d="M3590.26,3045.8h32.72c11.04,0,19.32,2.96,24.85,8.89,5.52,5.93,8.28,14.61,8.28,26.06v13.94c0,11.45-2.76,20.13-8.28,26.06-5.52,5.93-13.81,8.89-24.85,8.89h-10.5v57.57h-22.22v-141.4ZM3622.99,3109.43c3.64,0,6.36-1.01,8.18-3.03,1.82-2.02,2.73-5.45,2.73-10.3v-16.77c0-4.85-.91-8.28-2.73-10.3-1.82-2.02-4.54-3.03-8.18-3.03h-10.5v43.43h10.5Z" style="fill: #199fb5; stroke-width: 0px;"></path>
      <path d="M3668.23,3045.8h32.72c11.04,0,19.32,2.96,24.85,8.89,5.52,5.93,8.28,14.61,8.28,26.06v13.94c0,11.45-2.76,20.13-8.28,26.06-5.52,5.93-13.81,8.89-24.85,8.89h-10.5v57.57h-22.22v-141.4ZM3700.96,3109.43c3.64,0,6.36-1.01,8.18-3.03,1.82-2.02,2.73-5.45,2.73-10.3v-16.77c0-4.85-.91-8.28-2.73-10.3-1.82-2.02-4.54-3.03-8.18-3.03h-10.5v43.43h10.5Z" style="fill: #199fb5; stroke-width: 0px;"></path>
      <path d="M3753.27,3179.93c-5.79-6.19-8.69-14.95-8.69-26.26v-74.34c0-11.31,2.89-20.06,8.69-26.26,5.79-6.19,14.14-9.29,25.05-9.29s19.26,3.1,25.05,9.29c5.79,6.2,8.69,14.95,8.69,26.26v74.34c0,11.31-2.9,20.07-8.69,26.26-5.79,6.2-14.14,9.29-25.05,9.29s-19.26-3.1-25.05-9.29ZM3789.83,3155.09v-77.16c0-9.29-3.84-13.94-11.51-13.94s-11.51,4.65-11.51,13.94v77.16c0,9.29,3.84,13.94,11.51,13.94s11.51-4.65,11.51-13.94Z" style="fill: #199fb5; stroke-width: 0px;"></path>
      <path d="M3827,3045.8h32.93c11.44,0,19.8,2.66,25.05,7.98,5.25,5.32,7.88,13.5,7.88,24.54v8.69c0,14.68-4.85,23.97-14.54,27.88v.4c5.38,1.62,9.19,4.92,11.41,9.9,2.22,4.98,3.33,11.65,3.33,20v24.85c0,4.04.13,7.31.4,9.8.27,2.49.94,4.95,2.02,7.37h-22.62c-.81-2.29-1.35-4.44-1.62-6.46-.27-2.02-.4-5.66-.4-10.91v-25.86c0-6.46-1.04-10.97-3.13-13.53-2.09-2.56-5.69-3.84-10.81-3.84h-7.68v60.6h-22.22v-141.4ZM3857.3,3106.41c4.44,0,7.78-1.14,10-3.43,2.22-2.29,3.33-6.13,3.33-11.51v-10.91c0-5.12-.91-8.82-2.73-11.11-1.82-2.29-4.68-3.43-8.59-3.43h-10.1v40.4h8.08Z" style="fill: #199fb5; stroke-width: 0px;"></path>
      <path d="M3925.37,3066h-23.23v-20.2h68.68v20.2h-23.23v121.2h-22.22v-121.2Z" style="fill: #199fb5; stroke-width: 0px;"></path>
      <path d="M3981.53,3045.8h22.22v141.4h-22.22v-141.4Z" style="fill: #199fb5; stroke-width: 0px;"></path>
      <path d="M4014.45,3045.8h22.42l14.54,109.69h.4l14.54-109.69h20.4l-21.41,141.4h-29.49l-21.41-141.4Z" style="fill: #199fb5; stroke-width: 0px;"></path>
      <path d="M4097.47,3045.8h60.6v20.2h-38.38v37.37h30.5v20.2h-30.5v43.43h38.38v20.2h-60.6v-141.4Z" style="fill: #199fb5; stroke-width: 0px;"></path>
    </g>
    <g id="_6EW88i" data-name="6EW88i">
      <g>
        <path d="M2058.32,859.82v1.03c-4.06,5.4-7.46,11.05-14.68,13.56-13.73,4.77-27.11,10.52-40.64,15.85-22.63,8.93-45.25,17.87-67.89,26.77-7.75,3.05-14.51.79-18.23-6.61-2.52-5.03-4.18-10.48-6.45-15.65-4.49-10.19-3.67-10.81-12.72-5.98-1.34.72-2.92.99-4.36,1.53-4.24,1.59-8.47,3.22-12.67,4.82.36,1.49.46,2.17.68,2.81,5.76,16.49,2.22,31.72-6.7,45.99-4.2,6.73-10.8,11.02-16.93,16.01-10.29,8.38-21.52,10.52-33.88,11.08-1.61.07-3.58,1.81-4.6,3.31-2.48,3.65-3.96,8.07-6.81,11.33-5.02,5.76-10.51,11.19-16.27,16.22-11.32,9.91-24.87,13.14-39.63,11.8-4.25-.39-8.45-1.28-11.51-1.76.36,2.44,1.43,4.64.73,5.68-9.27,13.79-21.29,24.43-37.68,28.6-7.37,1.87-15.32,1.44-22.97,2.36-1.9.23-4.17,1.17-5.41,2.55-5.57,6.22-10.16,13.48-16.34,18.98-18.44,16.4-40.06,19.21-62.57,8-5.23-2.6-10.07-6.05-14.93-9.33-3.87-2.61-7.37-5.76-11.27-8.31-3.73-2.44-7.71-4.52-11.72-6.48-.69-.34-2.35.45-3.06,1.19-1.53,1.6-2.85,3.43-4.05,5.3-10.86,16.78-27.11,19.97-44.89,12.22-9.62-4.19-16.84-11.46-23.38-19.48-.98-1.2-2.89-2.11-4.47-2.27-5.54-.55-11.27-.01-16.65-1.17-8.37-1.8-15.09-6.68-21.39-12.64-4.95-4.69-9.7-8.99-11.84-15.7-.51-1.59-2.42-3.64-3.93-3.87-22.21-3.38-38.26-18.05-43.4-39.73-.4-1.69-2.08-3.53-3.67-4.4-6.68-3.67-13.92-6.44-20.28-10.58-15.17-9.87-21.43-25.24-17.44-42.8,1-4.39-1.36-5.76-3.85-7.11-11.91-6.43-23.9-12.71-36.01-18.75-2.12-1.06-4.96-.66-7.95-.99,1.68,5.48-3.2,17.73-7.1,19.76-2.89,1.5-5.75,3.36-8.84,4.06-2.78.63-6.22.7-8.76-.4-7.06-3.06-13.77-6.9-20.66-10.34-27.42-13.69-54.79-27.49-82.36-40.89-6.74-3.28-13-6.23-13.44-14.87-.02-.35-.74-.66-1.13-.99,4.34-8.65,8.64-17.32,13.01-25.95,8.8-17.36,17.54-34.74,26.52-52,2.49-4.79,6.16-8.99,8.53-13.83,2.89-5.88,4.64-12.31,7.48-18.22,4.67-9.72,9.92-19.17,14.75-28.82,12.29-24.53,24.42-49.14,36.75-73.65,4.44-8.83,9.28-17.45,13.89-26.19,5.63-10.7,10.73-21.72,17.07-31.98,2.24-3.62,7.16-6.4,11.43-7.72,4.64-1.44,17.29,7.05,19.39,11.64,6.28-1.91,13.09,1.47,16.76,8.34,6.03-2.07,13.49,1.67,16.29,8.16,6.55-1.88,17.09,3.39,16.87,8.43,5.77-2.16,16.72,3.26,16.81,8.32,5.31-2.15,11.71.83,14.09,6.28.39.89,2.08,1.9,3.01,1.77,6.82-.98,16.17,3.94,18.82,10.12,1.61,3.76,1.04,7.18-.81,10.8-4.02,7.87-7.76,15.9-11.44,23.94-.44.96-.27,3.03.41,3.54,7.21,5.41,16.18,7.03,24.14,10.86.58.28,1.7-.18,2.41-.58,8.94-5.06,18.57-9.24,26.61-15.47,13.39-10.38,27.54-19.42,42.99-26.01,8.33-3.55,17.78-5.11,26.88-6.07,10.55-1.11,20.41,3.18,30.15,6.85,1.07.4,1.86,1.66,2.93,1.94,1.91.5,4.25,1.32,5.85.66,3.46-1.42,6.39-4.1,9.84-5.55,7.02-2.93,15.11-4.13,21.15-8.34,7.75-5.4,16.06-7.04,24.39-5.86,10.89,1.54,21.69,4.66,32.11,8.28,17.75,6.16,35.22,13.13,52.71,20.01,7.12,2.8,13.92,6.42,20.99,9.37,5.04,2.1,10.63,3.07,15.35,5.66,5.58,3.07,10.73,3.41,16.68,1.54,13.76-4.33,27.58-8.51,41.51-12.22,4.65-1.24,5.03-2.95,3.3-6.81-2.67-5.94-5.2-11.97-7.44-18.09-2.57-7,.66-14.37,7.27-17.06,6.5-2.64,13.06-5.15,19.63-7.61,4.45-1.67,9.04-3,13.46-4.74,7-2.74,13.89-5.74,20.89-8.48.47-.18,1.42.86,2.03,1.26.99-1.17,1.83-3.07,3.19-3.59,10.17-3.84,20.43-7.45,30.69-11.05,3.78-1.33,8.77-1.34,11.23-3.86,4.85-4.98,10.94-5.99,16.86-7.02,3.38-.59,7.83.8,10.74,2.82,2.5,1.74,3.79,5.51,5.1,8.6,2.89,6.79,5.34,13.75,8.16,20.57,12.43,30.01,23.58,60.53,36.01,90.54,5.83,14.08,11.43,28.25,17.09,42.39,2.6,6.48,5.19,12.96,7.63,19.5,4.24,11.39,8.08,22.92,12.59,34.2,7.07,17.7,14.55,35.24,21.86,52.85,2.46,5.94,4.92,11.88,7.38,17.82ZM1506.05,991.26l-.02.14c2.78-4.47,5.48-8.99,8.36-13.39,4.77-7.29,4.13-16.28-1.9-20.9-7.43-5.69-13.17-6.08-20.97,2.05-4.98,5.19-9.24,10.96-13.1,17.18-6.31,10.14-13.96,19.44-20.79,29.26-1.04,1.5-1.35,4.05-.96,5.9,1.22,5.7,6.37,8.11,10.65,10.87,8.63,5.56,10.42,5.07,17.02-2.75.98-1.17,1.8-2.47,2.73-3.68,6.33-8.23,12.66-16.45,19-24.67ZM1547.45,663.66c-5.37-3.92-10.19-2.95-14.87-2.26-16.84,2.49-29.91,12.61-43.65,21.46-12.16,7.84-24.39,15.59-36.86,22.92-8.1,4.76-16.46,5.93-25.42.78-7.1-4.08-15.01-6.74-22.55-10.04-2.74-1.2-4.67-1.27-6.04,2.22-1.79,4.6-4.28,8.93-6.51,13.35-7.89,15.65-15.8,31.29-23.72,46.92-4.09,8.07-8.28,16.09-12.28,24.21-3.89,7.88-7.41,15.95-11.42,23.77-4.29,8.38-9.17,16.46-13.39,24.88-5.41,10.81-10.28,21.89-15.68,32.7-1.78,3.57-1.3,5.39,2.27,7.26,14.54,7.61,28.91,15.56,43.49,23.11,2.02,1.05,5.27,1.49,7.23.61,8.7-3.89,17.37-3.69,25.84-.15,4.95,2.07,9.67,4.99,13.95,8.24,5.23,3.98,10.04,8.55,14.7,13.2,1.61,1.6,2.37,2.87,5.01,1.71,2.88-1.26,6.1-1.98,9.25-2.36,7.8-.94,15.72-.47,22.61,3.28,6.36,3.47,14.04,6.18,15.68,15.01.1.54,3.87,1.35,4.94.62,10.41-7.18,21.23-8.87,33.74-5.87,16,3.83,28.08,19.45,29.19,34.06.59,7.73,1.64,12.95,10.21,14.86,4.4.98,7.78,4.33,11.34,7.67,4.42,4.16,7.38,5.71,7.23,11.62-.02.88.72,2.54,1.16,2.56,4.88.19,4.79,4.33,4.87,7.08.2,6.79-.67,13.61-.7,20.41,0,2.17.59,5.26,2.08,6.37,7.97,5.94,16.48,11.17,24.47,17.08,8.12,6,17.17,8.1,26.98,7.74,2.74-.1,6.15.2,8.06-1.25,5.46-4.12,10.36-8.98,15.38-13.67,3.26-3.04,4.39-6.06.4-9.79-6.77-6.33-13.21-13-19.72-19.6-8.33-8.43-16.48-17.05-24.93-25.36-6.12-6.03-1.42-19.47,5.85-20.74,5.72-.99,10.12.22,14.06,4.21,9.67,9.79,19.42,19.5,29.05,29.32,5.05,5.15,9.78,10.62,14.94,15.65,1.88,1.83,4.45,3.5,6.96,4.02,18.16,3.73,32.16-.6,43.48-17.61,1.94-2.91,1.98-4.85-.67-7.48-10.63-10.55-21.05-21.31-31.46-32.08-4.39-4.54-8.39-9.46-12.86-13.91-5.88-5.85-12.28-11.19-18.02-17.16-4.61-4.79-4-11.44.75-15.96,7.12-6.77,13.7-6.42,20.34.65,7,7.45,14.3,14.62,21.43,21.95,11.82,12.15,23.54,24.4,35.43,36.47,5.47,5.56,10.88,12.12,19.55,11.57,7.04-.45,14.72-1.22,20.75-4.42,5.75-3.05,10.04-9.17,14.39-14.42,3.73-4.49,2.67-9.82-1.72-14.04-5.44-5.23-10.86-10.46-16.18-15.81-4.23-4.26-8.12-8.88-12.45-13.02-7.07-6.76-14.44-13.2-21.57-19.89-4.39-4.12-8.38-8.69-12.92-12.63-4.3-3.74-6-9.69-11.91-12.26-2.94-1.28-4.1-5.18-4.66-9.22-.69-5.03.25-8.97,5.32-12.39,4.56-3.08,6.4-.4,8.2,3.42,3.78-2.39,6.88-2.74,10.04.98,3.73,4.41,8.15,8.23,12.26,12.32,6.44,6.41,12.79,12.91,19.33,19.22,5.75,5.54,11.81,10.75,17.54,16.32,7.89,7.67,15.91,15.26,23.25,23.44,3.52,3.93,7.44,6.61,12.16,8.43,15.02,5.8,35.26-9.85,37.28-24.22,1.02-7.28.3-13.73-5.94-19.62-17.4-16.43-34.06-33.64-51-50.54-12.05-12.02-23.98-24.17-36.22-36-2.66-2.57-6.43-4-9.7-5.96l2.17-1.52c-2.51-.56-5.19-.74-7.5-1.75-6.7-2.95-13.24-6.23-19.85-9.39-13.95-6.66-27.94-13.24-41.83-20.03-2.47-1.21-4.33-3.7-6.82-4.78-3.83-1.66-8.21-2.13-11.93-3.97-8.38-4.13-16.33-9.14-24.76-13.14-8.48-4.02-17.33-7.27-26.03-10.83-.78-.32-1.81-.8-2.45-.55-7.49,2.95-15.42,5.82-18.89,13.76-4.86,11.11-9.14,22.29-16.91,32.04-7.27,9.12-16.42,14.69-27.33,15.83-21.32,2.23-38.83-6.01-50.11-24.26-7.62-12.32-10.29-26.14-3.64-40.28,5.58-11.87,11.07-23.79,16.68-35.65,7.29-15.43,14.56-30.9,31.82-39.4ZM1661.7,735.94c1.58.08,3.27-.29,4.52.29,14.03,6.49,28.03,13.05,41.97,19.73,14.87,7.13,29.71,14.32,44.49,21.63,10.74,5.31,22.21,8.56,30.8,18.54,11.99,13.94,26.12,26.04,39.23,39.03,5.83,5.78,11.38,11.84,17.12,17.71,5.16,5.27,10.16,10.73,15.7,15.58,3.21,2.81,6.22,6.72,12.01,4.17,8.11-3.57,16.53-6.51,24.98-9.2,4.05-1.29,4.1-3.12,2.72-6.4-3.18-7.59-6.17-15.27-9.2-22.93-11.69-29.5-23.45-58.97-35.04-88.51-7.3-18.61-14.37-37.32-21.46-56.01-3.39-8.93-5.39-10.33-11.96-8.24-15.49,4.93-30.97,9.9-46.54,14.54-5.88,1.76-11.7,3.32-18.16.53-19.71-8.52-39.55-16.8-59.58-24.55-17.84-6.91-35.92-13.23-54.08-19.27-4.72-1.57-10.28-2.2-15.15-1.41-10.75,1.75-29.92,11.51-39.12,18.03-7.54,5.34-15.14,10.77-23.29,15.07-12.07,6.37-16.53,18.58-23.27,28.86-4.77,7.28-7.36,16.01-10.79,24.15-2.17,5.16-5.61,10.36-5.85,15.66-.83,18.59,15.96,27.89,33.69,23.9.85-.19,1.77-1.06,2.23-1.86,4.59-8.09,8.89-16.35,13.8-24.23.79-1.26,1.55-2.25,2.15-3.79,2.95-7.53,5.02-15.57,13.92-19.28,5.84-2.44,11.16-6.31,16.33-10.07,6.06-4.41,12.25-5.17,18.91-2.06,11.3,5.27,22.57,10.6,33.76,16.1,1.96.96,3.45,2.86,5.14,4.3ZM1383.08,679.15c0-3.1-.72-5.68.13-7.55,3.16-6.97,6.18-14.16,10.52-20.38,3.47-4.97,1.51-7.47-2.07-10.09-1.21-.88-3.19-.64-4.62-1.32-5.68-2.72-11.28-5.6-16.92-8.41-5.48-2.74-10.97-5.47-16.45-8.2-5.63-2.81-11.24-5.65-16.88-8.44-8.09-4.01-16.24-7.92-24.29-12.02-2.65-1.35-4.61-1.16-5.98,1.55-5.75,11.33-11.49,22.66-17.17,34.02-11.78,23.58-23.48,47.19-35.29,70.76-7.06,14.1-14.18,28.17-21.42,42.18-2.08,4.03-4.95,7.67-6.94,11.74-6.98,14.31-13.6,28.79-20.62,43.07-6.28,12.78-12.92,25.38-19.77,38.77,6.88,3.4,13.26,6.54,19.63,9.7,11.48,5.7,22.96,11.39,34.42,17.13,7.19,3.6,14.36,7.25,21.52,10.9,4.62,2.35,9.22,4.75,13.49,6.94,4.05-8.33,7.36-15.49,11.01-22.48,1.97-3.77,4.94-7.03,6.77-10.85,3.49-7.29,6.34-14.88,9.76-22.2,1.93-4.13,4.69-7.86,6.7-11.96,5.33-10.88,10.38-21.9,15.66-32.8,5.23-10.81,10.54-21.58,15.92-32.31,5.91-11.79,11.87-23.56,17.92-35.28,4.59-8.89,9.8-17.48,13.9-26.58,2.81-6.25,4.58-12.88,11.05-15.88ZM2027.83,853.67c-.45-1.3-.75-2.27-1.13-3.21-6.74-17.09-13.48-34.19-20.25-51.27-4.27-10.77-8.77-21.46-12.82-32.32-2.48-6.65-7.02-12.77-5.85-20.52.11-.71-.78-1.68-1.39-2.37-1.01-1.13-2.65-1.94-3.19-3.22-2.88-6.95-5.48-14.01-8.21-21.02-4.91-12.6-9.77-25.23-14.8-37.79-6.77-16.9-13.7-33.74-20.52-50.61-4.36-10.79-8.67-21.6-13.09-32.61-19,7.55-37.76,15.07-56.57,22.46-7.32,2.88-14.81,5.34-22.13,8.22-4.02,1.58-7.94,3.5-11.7,5.62-.65.37-.8,2.68-.36,3.77,2.01,4.95,4.54,9.69,6.45,14.66,2.07,5.38,3.4,11.05,5.54,16.4,2.18,5.46,5.25,10.56,7.41,16.03,8.52,21.63,16.69,43.39,25.25,64.99,6.78,17.12,14.02,34.06,20.9,51.13,5.34,13.26,9.84,26.85,15.56,39.99,6.07,13.94,11.18,28.29,16.65,42.49,1.16,3.02,2.55,4.86,6.08,2.88,1.47-.83,3.17-1.29,4.8-1.8,14.73-4.59,27.93-13.6,43.75-15.11.62-.06,1.05-1.3,1.74-1.61,7.13-3.15,14.28-6.28,21.5-9.23.61-.25,1.75.81,2.64,1.25,2.48-5.89,8.28-5.61,13.73-7.2ZM1458.37,957.59c-.35-.21-.69-.42-1.04-.63,0-1.65.63-3.69-.11-4.89-2.85-4.64-5.62-9.98-11.94-10.27-7.16-.32-13.46,1.21-17.17,8.74-2.32,4.69-5.98,8.79-9.37,12.88-9.37,11.35-8.88,15.76,3.13,24.43,1.1.8,2.27,1.54,3.51,2.1,6.97,3.13,9.36,2.45,14.2-3.37,2.63-3.16,3.61-8.03,8.75-8.75.3-.04.53-.81.73-1.27,1.07-2.37,2.03-4.8,3.19-7.13,1.98-3.98,4.07-7.89,6.12-11.84ZM1548.78,1001.96c-2.88-.24-4.44-.19-5.91-.52-7.44-1.71-13.49-.03-18,6.53-5.3,7.7-11.04,15.11-16.13,22.94-1.14,1.75-1.32,5.37-.25,7.08,3.7,5.96,9.03,10.39,15.93,12.4,3.91,1.14,7.11.41,9.66-3.55,4.26-6.62,9.35-12.7,13.67-19.28,2.07-3.16,4.43-6.96,4.41-10.45-.04-5.04-2.14-10.07-3.37-15.14ZM1382.23,919.25c-9.5-.81-14.64,4.22-12.86,12.84,2.28,11.03,16.25,18.73,26.14,15.91,5.74-1.64,8.06-6.98,7.33-12.92-1.05-8.65-10.8-9.09-13.97-15.7-.43-.89-4.34-.12-6.63-.12Z" style="fill: #2b3990; stroke-width: 0px;"></path>
        <path d="M1506.05,991.26s-.01.14-.02.14c0-.05.01-.09.02-.14Z" style="fill: #2b3990; stroke-width: 0px;"></path>
        <path d="M1268.59,820.18c-.15,8.7-7.27,16.37-15.05,16.23-8.65-.16-16.65-7.89-16.64-16.08.02-8.73,7.7-16,16.81-15.9,7.95.09,15.02,7.58,14.88,15.75Z" style="fill: #2b3990; stroke-width: 0px;"></path>
        <path d="M1962.38,804.71c7.89-.15,15.62,7.26,15.72,15.08.1,8.07-7.91,16.21-15.74,16.59-8.3.41-16.53-9.28-16.33-16.08.27-9.18,8.77-17.06,16.35-15.59Z" style="fill: #2b3990; stroke-width: 0px;"></path>
      </g>
    </g>
    <g id="wXhUvc">
      <g>
        <path d="M3564.17,1085.97c-10.59-6.36-14.66-15.71-14.12-27.98.6-13.54.09-27.12.15-40.68.08-18.74,5.51-25.21,24.39-28.22-7.77-9.5-15.49-18.46-22.68-27.82-34.3-44.67-47.96-96.07-50.11-151.53-1.3-33.44-4.23-66.82-6.21-100.24-.49-8.33-1.49-16.96.1-25,2.76-14.01,12.17-23.57,26.06-26.7,14.88-3.35,27.09,2.34,37.11,13.95,3.08,3.57,8.22,6.67,12.83,7.41,19.94,3.18,32.06,15.83,33.27,35.93,1.6,26.66,3.03,53.33,5.24,79.94.36,4.39,3.42,9.57,6.84,12.53,21.98,19.05,44.26,37.75,66.72,56.23,19.98,16.44,27.22,38.38,28.97,63.12,1.46,20.62,3.33,41.2,5.09,62.61,3.17.22,5.83.41,8.49.58,13.25.81,20.7,7.42,21.21,20.94.67,17.92,1.46,36.03-.43,53.77-.79,7.42-8.34,14.13-12.82,21.16h-69.47c-6.87-13.21-4.06-17.71,11.3-17.79,17.45-.09,34.89-.02,52.88-.02v-59.41h-159.44v59.53c18.6,0,36.47-.32,54.3.24,4.12.13,10.3,2.37,11.6,5.36,1.25,2.88-2.58,7.97-4.17,12.09h-67.08ZM3699.53,990.05c-1.72-22.57-3.58-43.18-4.78-63.83-1.41-24.39-12.18-43.1-32.08-57.12-7.14-5.03-13.33-11.37-20.09-16.95-12.27-10.15-24.35-20.56-37.07-30.13-9.66-7.27-22.19-6.47-28.15,1.06-7.45,9.43-3.44,17.92,3.09,25.82,2.53,3.07,5.4,5.87,8.19,8.72,13.4,13.67,27.24,26.94,39.95,41.22,3.08,3.47,2.45,10.24,3.53,15.49-5.2-.82-12.2.22-15.31-2.78-17.49-16.88-34.8-34.07-50.52-52.57-5.95-7.01-9.9-17.58-10.62-26.85-3.55-46.08-5.5-92.28-8.66-138.39-.36-5.31-3.47-12.35-7.6-14.97-4.49-2.85-12.32-3.34-17.5-1.5-7.97,2.84-9.45,10.84-8.9,19.04,2.68,40.16,6.33,80.3,7.51,120.51,1.93,66.09,28.06,120.74,74.55,166.52,2.92,2.88,7.04,6.36,10.66,6.42,30.62.51,61.25.29,93.8.29ZM3592.23,797.62c-1.62-28.11-2.77-55.49-4.96-82.79-1.03-12.86-8.53-17.66-21.7-15.39,2.13,34.22,4.27,68.54,6.44,103.43,7.07-1.84,13.15-3.41,20.22-5.25Z" style="fill: #2b3990; stroke-width: 0px;"></path>
        <path d="M3854.04,1085.97c-10.58-6.53-14.11-16.16-13.54-28.29.58-12.34.11-24.72.13-37.09.03-24.72,4.09-29.14,29.75-31.19,1.69-19.5,4.22-39.18,4.92-58.93,1.05-29.66,11.77-53.83,35.35-72.46,20.94-16.54,41.38-33.74,61.65-51.11,3.12-2.68,5.54-7.72,5.87-11.86,2.11-26.62,3.59-53.28,5.18-79.93,1.2-20.09,13.33-32.75,33.27-35.94,4.61-.74,9.83-3.8,12.83-7.41,10.06-12.09,25.46-17.77,39.39-13.27,14.32,4.63,25.38,17.13,24.44,31.91-3.66,57.63-6.17,115.45-13.29,172.69-5.63,45.24-29.16,83.7-59.48,117.63-1.85,2.07-3.69,4.15-5.5,6.26-.23.27-.23.73-.01-.02,6.62,4.16,14.83,6.79,18.62,12.41,3.8,5.63,3.98,14.2,4.36,21.55.64,12.33-.31,24.74.31,37.08.62,12.31-3.61,21.59-14.14,27.98h-67.08c-1.59-4.12-5.42-9.21-4.16-12.09,1.3-2.98,7.37-4.57,11.63-5.4,4.61-.9,9.53-.22,14.32-.23,13.34,0,26.68,0,39.97,0v-59.67h-159.44v59.67c18.41,0,36.26-.17,54.11.05,14.28.18,16.81,4.88,10.05,17.67h-69.47ZM3888.51,989.99c33.08,0,64.12.06,95.16-.13,2.07-.01,4.56-1.5,6.14-3.04,39.57-38.52,68.79-83.24,74.71-139.2,5.28-49.93,7.26-100.22,10.57-150.36.87-13.23-5.44-22.06-15.64-22.65-10.84-.62-17.75,7.66-18.55,21.79-2.58,45.8-5.07,91.61-8.12,137.37-.43,6.5-2.02,14.36-6.07,18.94-18.74,21.19-38.36,41.62-58.24,61.76-1.99,2.02-9.37,1.83-11.46-.2-2.17-2.12-1.85-7.93-.93-11.71.66-2.67,4.15-4.64,6.36-6.93,15.77-16.39,31.79-32.55,47.19-49.28,6.16-6.69,7.86-15.11,1.49-22.86-6.54-7.97-15.27-7.49-23.96-4.14-2.9,1.12-5.54,3.16-7.97,5.18-21.46,17.84-42.87,35.73-64.23,53.7-11.16,9.39-18.03,21.7-19.71,35.87-2.91,24.5-4.45,49.17-6.75,75.9ZM4016.33,802.8c2.17-35.08,4.3-69.5,6.42-103.87-13.56-1.3-20.59,3.11-21.6,15.28-2.29,27.66-3.46,55.42-5.11,83.46,6.99,1.77,13.4,3.39,20.29,5.13Z" style="fill: #2b3990; stroke-width: 0px;"></path>
        <path d="M3798.94,472.74c10.34,16.29,21.98,30.23,42.73,34.44,10.72,2.18,12.32,8.72,4.98,17.74-10.89,13.37-15.91,27.81-14.22,44.96.99,10.09-5.73,13.51-13.68,10.28-16.72-6.79-32.6-6.49-49.29.03-8.09,3.16-14.62-.4-13.57-10.41,1.81-17.2-3.46-31.56-14.27-44.93-7.39-9.14-5.73-15.65,5.06-17.68,20.95-3.94,32.36-18.14,42.68-34.42h9.58ZM3825.85,523.41c-11.32-8.17-22.18-16.01-31.49-22.73-10.44,7.38-21.1,14.91-30.29,21.41,3.76,11.44,7.83,23.81,11.47,34.9h39.37c.35-5.06-.4-12.09,1.61-18.2,2.03-6.16,6.81-11.4,9.33-15.39Z" style="fill: #2b3990; stroke-width: 0px;"></path>
        <path d="M3919.56,727.26c.39,69.11-55.63,125.73-124.78,126.11-69.18.38-125.35-55.37-125.87-124.92-.51-69.11,54.91-126.08,122.87-126.32,71.68-.25,127.37,54.28,127.78,125.12ZM3876,796.58c37.03-37.66,34.18-107.5-7.06-146.64-43.62-41.4-114.04-39.18-153.63,4.13-42.96,46.99-33.12,114.07-2.79,142.13,11.24-15.63,22.64-31.51,34.69-48.27-15.2-29.53-11.79-56,11.13-75.49,18.77-15.96,47.45-17.25,67.83-3.06,25.16,17.52,29.52,43.13,15.19,78.66,12.21,17.11,23.36,32.73,34.64,48.54ZM3794.76,836.21c10.85-2.12,21.95-3.41,32.51-6.52,34.23-10.09,38.47-27.98,13.23-53.96-2.49-2.57-4.92-5.84-8.04-6.99-4.28-1.58-9.92-3.24-13.72-1.72-16.85,6.76-33.07,6.88-49.77-.4-3.21-1.4-8.8-.86-11.7,1.12-12.94,8.85-20.96,21.48-25.05,36.61-2.05,7.59.23,12.53,7.54,16.34,17.23,8.99,35.06,14.94,55,15.53ZM3832.52,715.73c-.15-21.4-17.74-38.77-38.85-38.38-21.42.4-38.13,17.73-37.89,39.31.23,20.43,17.73,37.75,38.25,37.86,20.94.11,38.65-17.73,38.5-38.79Z" style="fill: #2b3990; stroke-width: 0px;"></path>
        <path d="M3685.2,618.64c-1.29-.47-2.82-.95-4.28-1.55-14.96-6.17-29.64-6.42-45.03-.44-11.79,4.58-17.21.75-16.25-11.55,1.3-16.56-3.67-30-13.92-42.73-7.42-9.23-5.33-15.28,6.1-18.29,15.83-4.17,27.55-12.52,36.36-26.44,6.54-10.32,13.38-10.18,20.19.39,8.67,13.46,20.14,21.42,35.49,25.63,12.62,3.46,14.54,8.92,6.52,18.86-10.64,13.19-15.08,27.56-14,44.18.48,7.37-2.31,12.54-11.2,11.95ZM3688.02,559.51c-9.92-7.26-20.41-14.94-29.78-21.81-9.89,7.22-20.66,15.09-29.62,21.62,3.77,12.59,7.49,25.02,10.59,35.39h37.45c3.67-11.37,7.66-23.76,11.36-35.2Z" style="fill: #2b3990; stroke-width: 0px;"></path>
        <path d="M3957.26,618.64c-1.71-.6-3.26-1.03-4.71-1.68-14.99-6.76-29.74-5.69-45.01-.15-11.81,4.29-15.87,1.42-15.51-11.07.46-16.26-3.6-30.15-13.96-43.03-8.28-10.3-6.51-15.26,6.2-18.77,15.75-4.36,27.33-12.95,36.25-26.59,6.42-9.81,13.35-9.9,19.45.03,8.68,14.13,20.49,22.2,36.3,26.39,11.47,3.04,13.71,9.33,6.46,18.38-10.48,13.07-16.12,26.88-13.97,43.85,1,7.92-2.7,13.09-11.5,12.64ZM3900.4,559.42c3.85,12.14,7.78,24.53,11.2,35.31h37.07c3.86-11.98,7.87-24.39,11.3-35.03-10.25-7.57-20.75-15.31-29.74-21.95-9.91,7.2-20.45,14.86-29.83,21.67Z" style="fill: #2b3990; stroke-width: 0px;"></path>
      </g>
    </g>
    <g id="EOmZVw">
      <g>
        <g>
          <path d="M4124.11,2920.24c-21.51-.11-44.33-.16-73.98-.16-13.52,0-27.04,0-40.56.02s-27.03.02-40.55.02h-3.94c-16.51,0-22.65-6.15-22.65-22.68v-40.49c0-42.53-.01-86.51.09-129.76.01-5.35-1.71-9.1-5.76-12.54-23.65-20.06-47.57-40.61-70.7-60.49l-17.45-14.99c-8.11-6.97-16.21-13.95-24.26-20.88l-13.02-11.22-1.63,1.4c-9.95,8.53-19.87,17.06-29.78,25.58-29.83,25.64-60.67,52.16-91.18,77.9-6.26,5.28-8.79,11.03-8.75,19.85.2,41.25.18,83.19.16,123.76,0,13.95-.01,27.91-.01,41.86,0,16.54-6.13,22.69-22.64,22.69h-3.99c-13.52,0-27.04,0-40.57-.02-13.52,0-27.05-.02-40.57-.02-29.61,0-52.4.05-73.9.15h-.24c-11.73,0-18.67-4.25-22.42-13.75v-203.86c.93-3.38,1.77-6.84,2.59-10.18,1.84-7.54,3.75-15.34,6.67-22.48,7.13-17.45,19.27-31.79,37.11-43.83l2.51-1.69-2.14-2.14c-18.04-18.07-26.58-39.43-25.39-63.47.95-19.12,8.36-36.34,22.03-51.18,14.71-15.97,36.15-25.14,58.82-25.14,15.38,0,30.22,4.21,42.94,12.19,15.51,9.73,27.79,25.38,33.7,42.95,7.03,20.9,4.96,43.56-5.99,65.51l-.62,1.24,3.07,5.05,2.15-1.37c1.94-1.24,3.99-2.44,5.96-3.6,4.42-2.6,9-5.29,13.02-8.68,24.58-20.68,53.12-44.77,80.68-69.1,8.73-7.71,20.37-12.13,31.94-12.13,7.96,0,15.53,2.08,21.89,6.03,1.44.89,3.19,1.08,4.4,1.08,1.66,0,3.25-.34,4.49-.96,8.53-4.28,16.32-6.36,23.8-6.36,10.38,0,20.23,4.09,30.12,12.51,10.54,8.97,21.23,18.14,31.56,27,16.08,13.8,32.71,28.06,49.2,41.94,5.69,4.79,12.3,8.11,19.72,11.65l6.39,3.05-3.06-6.38c-10.88-22.7-12.69-45.93-5.25-67.18,6.33-18.07,19.33-33.96,35.67-43.61,12.08-7.13,26.02-10.91,40.32-10.91,24.46,0,47.29,10.62,62.64,29.13,12.69,15.31,19.34,34.62,18.71,54.39-.65,20.62-9.39,40.36-24.62,55.59l-1.8,1.8,1.83,1.77c2.35,2.27,4.78,4.53,7.13,6.71,5.13,4.76,10.44,9.68,15.05,14.96,12.23,14.04,19.82,31.16,22.55,50.89.18,1.31.51,2.54.82,3.73.11.41.22.83.32,1.24v203.89c-3.79,9.51-10.72,13.76-22.41,13.76h-.25ZM3837.42,2549.87c-.95,0-1.84.11-2.64.32-2.79.75-7.27,3.39-5.96,12.72,1.45,10.4,6.36,19.25,14.58,26.29,11.92,10.21,23.82,20.43,35.73,30.66,28.31,24.32,57.58,49.47,86.61,73.93,8.07,6.8,11.47,14.2,11.4,24.76-.29,39.62-.23,79.89-.18,118.84.02,12.31.03,24.63.04,36.94,0,1.96.12,3.85.25,5.85.06.9.11,1.82.16,2.75l.12,2.38h134.1l.19-2.29c.05-.61.11-1.16.16-1.67.11-1.05.2-1.95.2-2.92,0-15.99.02-31.99.04-47.98.05-39.88.11-81.11-.18-121.67-.12-16.15-7.37-32.5-19.91-44.86-12.48-12.3-28.93-19.45-45.14-19.6-5.37-.05-11.15-.07-18.19-.07-4.44,0-8.88,0-13.32.02-4.43,0-8.87.02-13.3.02-6.65,0-12.12-.02-17.23-.07-21.1-.19-39.84-7.18-55.71-20.8l-10.67-9.16c-23.4-20.09-47.6-40.87-71.6-61.08-2.35-1.98-6.19-3.31-9.54-3.31ZM3579.53,2644.27c-19.12.04-36.65,7.07-49.36,19.78-12.72,12.72-19.73,30.25-19.76,49.38-.05,43.18-.04,87.09-.02,129.55v32.82c.01,1.65.12,3.29.21,4.88.04.73.09,1.47.13,2.21l.12,2.38h134.75v-11.02c0-13.63.01-27.26.02-40.89.03-38.08.06-77.46-.16-116.2-.05-9.55,3.07-16.29,10.45-22.53,27.81-23.54,55.92-47.66,83.1-70.99,13.23-11.35,26.46-22.71,39.7-34.04,8.4-7.18,13.25-15.49,14.83-25.39.6-3.78,1.61-10.1-4.61-13.68-1.64-.94-3.31-1.42-4.97-1.42-3.64,0-6.58,2.27-9.05,4.4-29.34,25.27-55.81,48.04-82.61,70.79-15.18,12.89-33.15,19.58-53.42,19.89-6.59.1-13.72.15-22.43.15-5.3,0-10.6-.02-15.9-.03-5.31-.02-10.61-.03-15.92-.03-1.71,0-3.41,0-5.11,0ZM3577.89,2517.04c-25.39.13-46.17,20.77-46.32,46.02-.07,11.89,4.94,23.79,13.73,32.63,8.8,8.85,20.66,13.93,32.55,13.93h.48c25.27-.28,45.79-21.19,45.73-46.6-.05-25.35-20.66-45.98-45.94-45.98h-.24ZM4044.3,2517.05c-25.04,0-45.58,20.52-45.79,45.75-.21,25.3,20.2,46.29,45.5,46.81.29,0,.57,0,.86,0,24.54,0,46.09-21.65,46.12-46.34.03-25.16-20.64-45.9-46.09-46.23h-.6Z" style="fill: #2b3990; stroke-width: 0px;"></path>
          <path d="M4044.12,2484.89c23.72,0,45.85,10.29,60.72,28.22,12.3,14.84,18.74,33.56,18.14,52.72-.64,20.27-8.9,38.91-23.89,53.9l-3.59,3.59,3.65,3.53c2.37,2.29,4.81,4.55,7.17,6.74,5.32,4.93,10.35,9.59,14.87,14.78,11.91,13.66,19.3,30.34,21.96,49.59.2,1.46.56,2.82.88,4.02.08.3.16.6.24.91v203.09c-3.43,8.22-9.44,11.75-19.91,11.75h-.23c-21.51-.11-44.31-.16-73.96-.16-13.52,0-27.04,0-40.55.02-13.52,0-27.03.02-40.55.02h-3.98c-7.66,0-12.82-1.44-15.77-4.39-2.95-2.95-4.38-8.12-4.38-15.79,0-13.47,0-26.95,0-40.42,0-42.55-.01-86.55.09-129.82.01-6.08-2.04-10.54-6.65-14.45-23.63-20.05-47.54-40.59-70.65-60.45-5.83-5.01-11.65-10.01-17.48-15.02-8.24-7.07-16.46-14.16-24.63-21.2-3.69-3.18-7.36-6.35-11.03-9.5l-3.26-2.8-3.26,2.8c-9.94,8.53-19.86,17.06-29.77,25.58-29.82,25.64-60.67,52.16-91.17,77.89-6.89,5.81-9.68,12.12-9.64,21.77.2,41.2.18,83.1.16,123.62,0,13.99-.01,27.99-.01,41.99,0,7.67-1.43,12.84-4.38,15.8-2.95,2.96-8.1,4.39-15.76,4.39h-4.15c-13.49,0-26.98,0-40.47-.02-13.49,0-26.98-.02-40.47-.02-29.63,0-52.44.05-73.95.15h-.23c-10.51,0-16.52-3.52-19.92-11.74v-203.04c.9-3.31,1.72-6.67,2.52-9.93,1.91-7.79,3.71-15.16,6.56-22.13,6.94-16.98,18.78-30.94,36.2-42.7l5.02-3.39-4.28-4.29c-8.7-8.72-15.18-18.25-19.27-28.34-4.16-10.27-5.97-21.45-5.39-33.24.92-18.52,8.11-35.21,21.37-49.61,14.24-15.46,35.01-24.33,56.98-24.33,14.9,0,29.29,4.08,41.6,11.8,15.03,9.42,26.93,24.6,32.66,41.63,6.81,20.26,4.78,42.25-5.86,63.6l-1.23,2.47,1.43,2.36.41.67.62,1.02,2.65,4.36,4.3-2.74c1.9-1.21,3.84-2.35,5.89-3.56,4.51-2.65,9.18-5.4,13.36-8.92,24.61-20.7,53.17-44.81,80.72-69.14,8.28-7.31,19.32-11.5,30.29-11.5,7.49,0,14.61,1.95,20.58,5.65,1.94,1.2,4.18,1.45,5.72,1.45,2.04,0,4.03-.44,5.61-1.22,8.18-4.1,15.59-6.1,22.68-6.1,9.76,0,19.08,3.9,28.5,11.91,10.53,8.96,21.2,18.12,31.53,26.98,16.09,13.81,32.73,28.09,49.24,41.97,5.92,4.98,12.67,8.38,20.25,11.99l12.78,6.09-6.12-12.77c-10.58-22.09-12.36-44.66-5.14-65.27,6.14-17.52,18.74-32.93,34.58-42.29,11.7-6.91,25.2-10.56,39.05-10.56M3577.86,2612.13c.17,0,.34,0,.5,0,26.64-.3,48.26-22.32,48.21-49.11-.06-26.73-21.79-48.47-48.44-48.47h-.25c-26.76.14-48.65,21.9-48.8,48.5-.07,12.55,5.2,25.09,14.46,34.41,9.27,9.32,21.78,14.67,34.32,14.67M4044.87,2612.12c12.43,0,24.84-5.31,34.07-14.57,9.23-9.26,14.54-21.75,14.55-34.27.03-26.52-21.75-48.38-48.56-48.73-.21,0-.42,0-.63,0-26.41,0-48.07,21.64-48.29,48.23-.22,26.66,21.29,48.79,47.95,49.33.3,0,.61,0,.91,0M3616.44,2641.84c-5.3,0-10.6-.02-15.89-.03-5.31-.02-10.62-.03-15.93-.03-1.7,0-3.4,0-5.09,0-19.79.05-37.94,7.33-51.12,20.51-13.19,13.19-20.47,31.35-20.49,51.15-.05,43.44-.03,87.61-.02,130.33v32.04c.01,1.72.12,3.41.22,5.03.04.72.09,1.45.12,2.18l.23,4.76h139.63v-13.52c0-13.58.01-27.15.02-40.73.03-38.14.06-77.58-.16-116.38-.05-8.84,2.72-14.82,9.57-20.61,27.82-23.55,55.94-47.68,83.13-71.02,13-11.16,26.44-22.69,39.68-34.02,8.87-7.59,13.99-16.38,15.67-26.9.61-3.83,1.88-11.8-5.83-16.24-2.02-1.16-4.11-1.75-6.21-1.75-4.49,0-7.87,2.58-10.68,5-29.31,25.24-55.76,47.99-82.6,70.78-14.73,12.5-32.17,19-51.84,19.3-6.59.1-13.71.15-22.41.15M3975.14,2887.81h138.78l.38-4.59c.05-.59.1-1.12.15-1.61.11-1.07.21-2.09.21-3.18,0-16,.02-31.99.04-47.99.05-39.88.11-81.11-.18-121.67-.12-16.8-7.65-33.8-20.66-46.62-12.94-12.76-30.02-20.16-46.87-20.32-5.38-.05-11.17-.07-18.22-.07-4.43,0-8.87,0-13.3.02-4.43,0-8.85.02-13.28.02-6.65,0-12.13-.02-17.23-.07-20.5-.18-38.7-6.98-54.1-20.2l-10.64-9.13c-23.42-20.11-47.63-40.9-71.65-61.12-2.81-2.37-7.19-3.9-11.15-3.9-1.17,0-2.28.14-3.29.41-2.89.77-9.42,3.82-7.79,15.48,1.54,11.02,6.73,20.39,15.43,27.84,11.91,10.19,24,20.58,35.69,30.62,28.33,24.33,57.62,49.5,86.67,73.97,7.54,6.35,10.58,12.96,10.51,22.83-.29,39.62-.24,79.9-.18,118.85.02,12.32.03,24.63.04,36.95,0,2.03.13,4.05.25,6,.06.9.11,1.81.16,2.73l.24,4.75M4044.12,2479.89c-14.33,0-28.73,3.66-41.59,11.25-31.73,18.74-55.81,63.09-31.4,114.03-6.74-3.21-13.55-6.56-19.19-11.3-27.08-22.78-53.8-46-80.75-68.93-10.34-8.8-20.74-13.1-31.74-13.1-7.92,0-16.17,2.23-24.92,6.63-.9.45-2.14.69-3.36.69s-2.31-.22-3.08-.7c-7.01-4.34-15.06-6.4-23.21-6.4-12.01,0-24.23,4.48-33.6,12.75-26.53,23.42-53.55,46.29-80.63,69.06-5.64,4.74-12.45,8.09-18.72,12.08-.34-.56-.68-1.13-1.03-1.69,24.7-49.55,1.16-93.02-28.62-111.7-13.49-8.46-28.92-12.57-44.26-12.57-22.57,0-44.95,8.9-60.65,25.94-13.75,14.93-21.68,32.51-22.69,52.75-1.26,25.42,7.89,47.1,26.12,65.36-17.16,11.59-30.38,26.24-38.03,44.96-4.33,10.61-6.38,22.15-9.45,33.27v204.66c4.38,11.54,12.9,15.79,24.92,15.79.08,0,.17,0,.26,0,24.64-.12,49.28-.15,73.93-.15,26.98,0,53.96.04,80.94.04,1.38,0,2.76,0,4.15,0,17.95,0,25.14-7.24,25.14-25.19,0-55.21.12-110.42-.15-165.63-.04-7.57,1.75-12.77,7.86-17.93,40.48-34.15,80.53-68.79,120.98-103.5,11.78,10.14,23.7,20.44,35.66,30.7,29.35,25.2,58.66,50.46,88.16,75.49,3.57,3.03,4.89,6.05,4.88,10.63-.13,56.75-.08,113.5-.09,170.25,0,17.95,7.19,25.18,25.15,25.18,1.33,0,2.65,0,3.98,0,27.03,0,54.07-.04,81.1-.04,24.64,0,49.29.03,73.93.16.09,0,.17,0,.26,0,12.03,0,20.52-4.28,24.91-15.79v-204.66c-.4-1.67-.94-3.32-1.17-5.01-2.72-19.62-10.15-37.28-23.15-52.19-6.82-7.82-14.84-14.58-22.33-21.82,33.26-33.27,32.31-81.68,6.06-113.34-16.22-19.56-40.3-30.03-64.57-30.03h0ZM3577.86,2607.13c-23.52,0-43.92-20.46-43.78-44.05.14-23.87,19.81-43.41,43.83-43.53.08,0,.15,0,.22,0,23.93,0,43.39,19.46,43.44,43.48.05,24-19.4,43.83-43.26,44.1-.15,0-.3,0-.45,0h0ZM4044.87,2607.12c-.27,0-.54,0-.81,0-23.98-.48-43.24-20.3-43.05-44.29.2-23.95,19.59-43.27,43.29-43.27.19,0,.38,0,.57,0,24.11.31,43.65,19.91,43.62,43.72-.03,23.53-20.35,43.84-43.62,43.84h0ZM3616.44,2646.84c7.5,0,14.99-.03,22.49-.15,20.67-.32,39.2-7.07,55-20.49,27.65-23.48,55.14-47.13,82.62-70.8,2.37-2.04,4.71-3.79,7.42-3.79,1.16,0,2.39.32,3.72,1.09,4.45,2.56,4.07,6.84,3.38,11.12-1.56,9.79-6.52,17.5-13.98,23.89-40.93,35.01-81.68,70.23-122.79,105.02-7.91,6.7-11.4,14.12-11.34,24.45.3,52.36.14,104.72.14,157.08v8.52h-129.86c-.11-2.36-.32-4.66-.32-6.97-.02-54.12-.06-108.24,0-162.36.05-38.18,28.48-66.57,66.63-66.66,1.69,0,3.39,0,5.08,0,10.61,0,21.22.07,31.82.07h0ZM3979.9,2882.81c-.15-2.95-.4-5.71-.4-8.48-.03-51.92-.23-103.85.14-155.77.08-11.3-3.56-19.34-12.29-26.69-41.02-34.56-81.58-69.68-122.33-104.57-7.67-6.57-12.33-14.7-13.73-24.74-.6-4.28-.18-8.81,4.13-9.96.61-.16,1.28-.24,1.99-.24,2.74,0,6.01,1.11,7.93,2.73,27.58,23.22,54.9,46.74,82.25,70.22,16.5,14.16,35.67,21.21,57.32,21.4,5.76.05,11.51.07,17.27.07,8.86,0,17.72-.04,26.58-.04,6.06,0,12.12.02,18.18.07,32.56.31,62.34,29.39,62.57,61.98.4,56.54.14,113.08.14,169.63,0,1.28-.2,2.55-.35,4.38h-129.41Z" style="fill: #fff; stroke-width: 0px;"></path>
        </g>
        <path d="M3831.06,2393.26c0,13.62.05,27.24-.01,40.86-.06,12.92-7.98,21.36-19.86,21.32-11.83-.04-19.64-8.5-19.67-21.52-.05-27.02-.05-54.04,0-81.06.02-12.6,8.41-21.61,19.86-21.56,11.44.06,19.62,9.05,19.67,21.75.05,13.4.01,26.8.01,40.2Z" style="fill: #2b3990; stroke-width: 0px;"></path>
        <path d="M3723.5,2476.81c-2.16-1.14-7.27-2.57-10.66-5.81-14.62-13.96-28.87-28.32-42.98-42.81-7.51-7.72-7.2-19.9.07-27.36,7.38-7.56,19.47-8.18,27.31-.61,14.7,14.21,29.17,28.68,43.4,43.36,6,6.18,7.42,13.81,3.55,21.88-3.57,7.47-9.66,11.06-20.69,11.34Z" style="fill: #2b3990; stroke-width: 0px;"></path>
        <path d="M3896.93,2477.81c-8.81-1.17-14.86-4.82-18.51-12.23-3.7-7.5-2.94-15.03,2.62-20.85,14.73-15.41,29.78-30.55,45.24-45.24,7.4-7.04,19.22-5.88,26.27,1.25,7.16,7.23,7.85,19.47.68,26.87-14.52,15-29.3,29.76-44.38,44.2-3.07,2.94-7.91,4.04-11.93,5.99Z" style="fill: #2b3990; stroke-width: 0px;"></path>
      </g>
    </g>
  </g>
</svg>
