<?xml version="1.0" encoding="UTF-8"?>
<svg xmlns="http://www.w3.org/2000/svg" xmlns:xlink="http://www.w3.org/1999/xlink" viewBox="0 0 5442.52 3724.72">
  <defs>
    <linearGradient id="linear-gradient" x1="2721.26" y1="429.97" x2="2721.26" y2="3298.43" gradientUnits="userSpaceOnUse">
      <stop offset="0" stop-color="#1a9fb5"></stop>
      <stop offset=".06" stop-color="#35aabd"></stop>
      <stop offset=".19" stop-color="#64becb"></stop>
      <stop offset=".31" stop-color="#8ecfd8"></stop>
      <stop offset=".44" stop-color="#afdde2"></stop>
      <stop offset=".57" stop-color="#c9e8ea"></stop>
      <stop offset=".71" stop-color="#dceff0"></stop>
      <stop offset=".85" stop-color="#e7f4f3"></stop>
      <stop offset="1" stop-color="#ebf6f5"></stop>
    </linearGradient>
    <linearGradient id="linear-gradient-2" x1="1502.66" y1="1862.36" x2="3939.86" y2="1862.36" gradientUnits="userSpaceOnUse">
      <stop offset="0" stop-color="#fff"></stop>
      <stop offset=".13" stop-color="#f9fcfc"></stop>
      <stop offset=".55" stop-color="#eef7f6"></stop>
      <stop offset="1" stop-color="#ebf6f5"></stop>
    </linearGradient>
  </defs>
  <g id="Layer_1">
    <circle cx="2721.26" cy="1862.36" r="1498.95" style="fill:url(#linear-gradient); stroke:#292b82; stroke-miterlimit:10; stroke-width:15px;"></circle>
    <circle cx="2721.26" cy="1862.36" r="1218.6" style="fill:url(#linear-gradient-2); stroke:#292b82; stroke-miterlimit:10; stroke-width:15px;"></circle>
  </g>
  <g id="Layer_2">
    <polygon points="2596.03 2349.88 2733.69 1989.21 2517.35 1906.64 2379.69 2267.31 2379.69 2267.31 2529.15 2200.43 2596.03 2349.88" style="fill:#292b82; stroke-width:0px;"></polygon>
    <polygon points="2828.54 2349.88 2690.88 1989.21 2907.22 1906.64 3044.88 2267.31 3044.88 2267.31 2895.42 2200.43 2828.54 2349.88" style="fill:#292b82; stroke-width:0px;"></polygon>
    <path d="M3151.87,1652.72c0,27.25-42.58,49.96-47.68,75.71-5.25,26.54,25.3,63.77,15.18,88.19-10.3,24.84-58.34,29.52-73.12,51.6-14.9,22.25-.93,68.41-19.8,87.27-18.86,18.86-65.02,4.9-87.27,19.8-22.08,14.78-26.76,62.82-51.6,73.12-24.41,10.12-61.65-20.43-88.19-15.18-25.75,5.09-48.47,47.68-75.72,47.68s-49.96-42.58-75.71-47.68c-26.54-5.25-63.77,25.3-88.19,15.18s-29.52-58.34-51.6-73.12c-22.25-14.9-68.41-.93-87.27-19.8-18.86-18.86-4.9-65.02-19.8-87.27-14.78-22.08-62.82-26.76-73.12-51.6-10.12-24.41,20.43-61.65,15.18-88.19-5.09-25.75-47.68-48.47-47.68-75.72s42.58-49.96,47.68-75.71c5.25-26.54-25.3-63.77-15.18-88.19,10.3-24.84,58.34-29.52,73.12-51.6,14.9-22.25.93-68.41,19.8-87.27,18.86-18.86,65.02-4.9,87.27-19.8,22.08-14.78,26.76-62.82,51.6-73.12,24.41-10.12,61.65,20.43,88.19,15.18,25.75-5.09,48.47-47.68,75.72-47.68s49.96,42.58,75.71,47.68c26.54,5.25,63.77-25.3,88.19-15.18,24.84,10.3,29.52,58.34,51.6,73.12,22.25,14.9,68.41.93,87.27,19.8,18.86,18.86,4.9,65.02,19.8,87.27,14.78,22.08,62.82,26.76,73.12,51.6,10.12,24.41-20.43,61.65-15.18,88.19,5.09,25.75,47.68,48.47,47.68,75.72Z" style="fill:#079cb6; stroke-width:0px;"></path>
    <path d="M3151.87,1652.72c0,27.25-42.58,49.96-47.68,75.71-5.25,26.54,25.3,63.77,15.18,88.19-10.3,24.84-58.34,29.52-73.12,51.6-14.9,22.25-.93,68.41-19.8,87.27-18.86,18.86-65.02,4.9-87.27,19.8-22.08,14.78-26.76,62.82-51.6,73.12-24.41,10.12-61.65-20.43-88.19-15.18-25.75,5.09-48.47,47.68-75.72,47.68s-49.96-42.58-75.71-47.68c-26.54-5.25-63.77,25.3-88.19,15.18s-29.52-58.34-51.6-73.12c-22.25-14.9-68.41-.93-87.27-19.8-18.86-18.86-4.9-65.02-19.8-87.27-14.78-22.08-62.82-26.76-73.12-51.6-10.12-24.41,20.43-61.65,15.18-88.19-5.09-25.75-47.68-48.47-47.68-75.72s42.58-49.96,47.68-75.71c5.25-26.54-25.3-63.77-15.18-88.19,10.3-24.84,58.34-29.52,73.12-51.6,14.9-22.25.93-68.41,19.8-87.27,18.86-18.86,65.02-4.9,87.27-19.8,22.08-14.78,26.76-62.82,51.6-73.12,24.41-10.12,61.65,20.43,88.19,15.18,25.75-5.09,48.47-47.68,75.72-47.68s49.96,42.58,75.71,47.68c26.54,5.25,63.77-25.3,88.19-15.18,24.84,10.3,29.52,58.34,51.6,73.12,22.25,14.9,68.41.93,87.27,19.8,18.86,18.86,4.9,65.02,19.8,87.27,14.78,22.08,62.82,26.76,73.12,51.6,10.12,24.41-20.43,61.65-15.18,88.19,5.09,25.75,47.68,48.47,47.68,75.72Z" style="fill:none; stroke:#292b82; stroke-miterlimit:10; stroke-width:5.8px;"></path>
    <circle cx="2723.69" cy="1652.72" r="331.72" style="fill:#fff; stroke:#292b82; stroke-miterlimit:10; stroke-width:5.8px;"></circle>
    <path d="M2733.63,1797.99c-29.55,0-59.11,0-88.66,0-7.52,0-8.75-1.34-8.82-8.88-.11-11.59-.57-23.17,2.87-34.51,8.44-27.82,35.26-47.64,64.26-46.74,4.72.15,9.57,2.1,14,4.05,9.98,4.38,20.26,5.79,29.95.8,16.93-8.72,32.97-5.26,48.26,2.89,22.15,11.81,34,30.85,35.29,56.1.32,6.18.05,12.39.06,18.58,0,5.89-1.68,7.69-7.58,7.71-13.51.05-27.01.01-40.52.01-16.37,0-32.73,0-49.1,0Z" style="fill:#292b82; stroke-width:0px;"></path>
    <path d="M2814.66,1710.02c13.98-21.17,33.13-32.39,58.35-32.23,4.25.03,8.74,1.74,12.68,3.6,11.41,5.41,22.55,5.61,33.93.05,15.43-7.54,30.38-3.57,44.32,3.64,24,12.42,35.7,32.99,36.41,59.87.15,5.56-.05,11.12-.11,16.68-.04,3.82-1.97,5.9-5.8,6.13-1.11.07-2.22.04-3.34.04-46.73,0-93.46-.04-140.19.08-3.97.01-5.62-.66-6.22-5.18-2.6-19.84-11.73-36.37-26.78-49.61-.95-.83-1.84-1.72-3.27-3.07Z" style="fill:#292b82; stroke-width:0px;"></path>
    <path d="M2652.24,1709.84c-23.77,26.09-26.52,31.22-30.88,57.75-1.58.07-3.27.21-4.97.21-46.9.01-93.8.01-140.71,0-7.8,0-8.93-1.04-8.7-8.75.28-9.35-.12-18.83,1.33-28.01,4.79-30.47,34.78-54.65,65.69-53.24,4.59.21,9.32,1.94,13.58,3.86,10.11,4.53,20.53,6.1,30.39.94,14.23-7.45,28.04-5.43,41.9-.14,13.81,5.26,24.29,14.77,32.37,27.38Z" style="fill:#292b82; stroke-width:0px;"></path>
    <path d="M2793.7,1633.64c-.1,33.41-27.23,60.45-60.46,60.25-33.12-.2-59.98-27.22-59.96-60.3.03-33.47,26.98-60.49,60.25-60.42,33.43.08,60.26,27.04,60.17,60.47Z" style="fill:#292b82; stroke-width:0px;"></path>
    <path d="M2564.56,1543.11c33.72.37,60.2,27.47,59.89,61.29-.31,33.07-27.93,59.8-61.33,59.36-32.73-.44-59.55-27.87-59.21-60.57.34-33.53,27.51-60.44,60.66-60.08Z" style="fill:#292b82; stroke-width:0px;"></path>
    <path d="M2902.02,1543.1c32.7-.77,60.23,25.88,61.12,59.16.87,32.79-25.96,60.87-58.77,61.51-33.45.65-61.19-25.79-61.81-58.92-.63-33.7,25.61-60.95,59.46-61.75Z" style="fill:#292b82; stroke-width:0px;"></path>
    <polygon points="2816.99 1216.71 2723.69 1148.92 2630.38 1216.71 2666.02 1107.03 2572.72 1039.24 2688.05 1039.24 2723.69 929.55 2759.32 1039.24 2874.65 1039.24 2781.35 1107.03 2816.99 1216.71" style="fill:#079cb6; stroke-width:0px;"></polygon>
    <polygon points="3099.02 1263.73 3025.88 1210.59 2952.74 1263.73 2980.68 1177.75 2907.53 1124.6 2997.94 1124.6 3025.88 1038.62 3053.82 1124.6 3144.22 1124.6 3071.08 1177.75 3099.02 1263.73" style="fill:#079cb6; stroke-width:0px;"></polygon>
    <polygon points="3297.17 1469.79 3224.03 1416.64 3150.89 1469.79 3178.83 1383.8 3105.69 1330.66 3196.09 1330.66 3224.03 1244.68 3251.97 1330.66 3342.38 1330.66 3269.24 1383.8 3297.17 1469.79" style="fill:#079cb6; stroke-width:0px;"></polygon>
    <polygon points="2365.2 1263.73 2438.34 1210.59 2511.49 1263.73 2483.55 1177.75 2556.69 1124.6 2466.28 1124.6 2438.34 1038.62 2410.41 1124.6 2320 1124.6 2393.14 1177.75 2365.2 1263.73" style="fill:#079cb6; stroke-width:0px;"></polygon>
    <polygon points="2167.05 1469.79 2240.19 1416.64 2313.33 1469.79 2285.4 1383.8 2358.54 1330.66 2268.13 1330.66 2240.19 1244.68 2212.26 1330.66 2121.85 1330.66 2194.99 1383.8 2167.05 1469.79" style="fill:#079cb6; stroke-width:0px;"></polygon>
    <path d="M2195.37,2745.54c-12.85-14.25-19.27-34.7-19.27-61.33v-18.8h48.88v22.56c0,21.31,8.93,31.96,26.79,31.96,8.77,0,15.43-2.58,19.98-7.75,4.54-5.17,6.81-13.55,6.81-25.15,0-13.78-3.14-25.92-9.4-36.42-6.27-10.49-17.86-23.1-34.78-37.83-21.31-18.8-36.19-35.79-44.65-51-8.46-15.19-12.69-32.35-12.69-51.46,0-26,6.58-46.13,19.74-60.4,13.16-14.25,32.27-21.38,57.34-21.38s43.48,7.13,56.17,21.38c12.69,14.26,19.04,34.71,19.04,61.33v13.63h-48.88v-16.92c0-11.28-2.2-19.51-6.58-24.68-4.39-5.17-10.81-7.75-19.27-7.75-17.24,0-25.85,10.5-25.85,31.49,0,11.91,3.21,23.03,9.64,33.37,6.42,10.34,18.09,22.88,35.01,37.6,21.62,18.8,36.5,35.88,44.65,51.23,8.14,15.36,12.22,33.37,12.22,54.05,0,26.95-6.66,47.63-19.98,62.04-13.32,14.42-32.67,21.62-58.04,21.62s-44.03-7.12-56.87-21.38Z" style="fill:#079cb6; stroke-width:0px;"></path>
    <path d="M2359.87,2433.23h141v47h-89.3v86.95h70.97v47h-70.97v101.05h89.3v47h-141v-329Z" style="fill:#079cb6; stroke-width:0px;"></path>
    <path d="M2530.47,2433.23h76.61c26.63,0,46.06,6.19,58.28,18.57,12.22,12.38,18.33,31.42,18.33,57.1v20.21c0,34.16-11.28,55.78-33.84,64.86v.94c12.53,3.76,21.39,11.44,26.56,23.03,5.17,11.6,7.75,27.11,7.75,46.53v57.81c0,9.4.31,17,.94,22.79.62,5.8,2.19,11.52,4.7,17.16h-52.64c-1.88-5.32-3.14-10.34-3.76-15.04-.63-4.7-.94-13.16-.94-25.38v-60.16c0-15.04-2.43-25.53-7.28-31.49-4.86-5.95-13.24-8.93-25.15-8.93h-17.86v141h-51.7v-329ZM2600.97,2574.23c10.34,0,18.1-2.66,23.27-7.99,5.17-5.32,7.75-14.25,7.75-26.79v-25.38c0-11.9-2.12-20.52-6.35-25.85-4.23-5.32-10.89-7.99-19.97-7.99h-23.5v94h18.8Z" style="fill:#079cb6; stroke-width:0px;"></path>
    <path d="M2704.37,2433.23h52.17l33.84,255.21h.94l33.84-255.21h47.47l-49.82,329h-68.62l-49.82-329Z" style="fill:#079cb6; stroke-width:0px;"></path>
    <path d="M2897.54,2433.23h51.7v329h-51.7v-329Z" style="fill:#079cb6; stroke-width:0px;"></path>
    <path d="M3003.99,2745.78c-13.01-14.1-19.5-33.99-19.5-59.69v-176.72c0-25.69,6.5-45.59,19.5-59.69,13-14.1,31.88-21.15,56.63-21.15s43.63,7.05,56.63,21.15c13,14.1,19.5,34,19.5,59.69v34.78h-48.88v-38.07c0-20.36-8.62-30.55-25.85-30.55s-25.85,10.19-25.85,30.55v183.77c0,20.06,8.61,30.08,25.85,30.08s25.85-10.02,25.85-30.08v-50.29h48.88v46.53c0,25.7-6.51,45.59-19.5,59.69-13.01,14.1-31.89,21.15-56.63,21.15s-43.64-7.05-56.63-21.15Z" style="fill:#079cb6; stroke-width:0px;"></path>
    <path d="M3167.78,2433.23h141v47h-89.3v86.95h70.97v47h-70.97v101.05h89.3v47h-141v-329Z" style="fill:#079cb6; stroke-width:0px;"></path>
  </g>
</svg>
